<?xml version="1.0" encoding="utf-8"?>
<svg viewBox="-7.424 0 1397.211 1142.968" xmlns="http://www.w3.org/2000/svg">
  <path d="M 1070.33 637.034 C 1070.27 788.525 983.235 927.025 845.396 994.972 C 841.935 996.679 838.441 998.338 834.91 999.954 C 743.686 1041.538 640.063 1048.659 543.83 1019.943 C 534.387 1017.11 525.091 1013.953 515.948 1010.481 C 223.322 899.284 162.965 518.61 407.312 325.269 C 462.915 281.273 529.302 252.398 599.835 241.533 C 620.692 238.358 641.763 236.772 662.866 236.777 C 887.902 236.777 1070.33 415.973 1070.33 637.034 Z" style="fill: rgba(108, 99, 255, 0.1);" transform="matrix(1, 0, 0, 0.9999999999999999, 0, -2.842170943040401e-14)"/>
  <path d="M 1099.885 694.077 C 1160.628 629.294 1191.882 532.302 1159.134 450.313 C 1110.882 533.541 1034.215 597.32 942.696 630.369 C 907.353 642.984 866.709 653.408 847.514 685.169 C 835.566 704.934 834.72 729.672 840.134 752.032 C 845.549 774.391 856.67 794.953 867.681 815.237 L 867.748 820.972 C 953.769 796.137 1039.141 758.863 1099.885 694.077 Z" style="fill: rgba(108, 99, 255, 0.23);" transform="matrix(1, 0, 0, 0.9999999999999999, 0, -2.842170943040401e-14)"/>
  <path d="M 1157.303 450.749 C 1146.993 522.945 1113.786 590.112 1062.402 642.711 C 1051.323 653.915 1039.092 664.333 1024.956 671.642 C 1011.119 678.663 995.62 681.918 980.071 681.066 C 965.554 680.557 950.771 678.386 936.378 681.354 C 921.214 684.478 909.212 694.099 901.429 707.076 C 891.906 722.95 888.757 741.238 886.308 759.23 C 883.592 779.209 881.091 800 869.479 817.193 C 868.072 819.276 871.443 821.302 872.849 819.22 C 893.056 789.307 886.246 751.108 899.867 718.859 C 906.221 703.808 917.231 690.55 933.709 685.99 C 948.115 682.005 963.368 684.231 978.06 684.87 C 993.488 685.541 1008.17 683.68 1022.296 677.263 C 1036.745 670.696 1049.414 660.729 1060.738 649.854 C 1086.22 625.003 1107.571 596.369 1124.004 565.005 C 1142.957 529.312 1155.556 490.696 1161.253 450.827 C 1161.609 448.36 1157.652 448.296 1157.303 450.749 Z" fill="#fff" style="" transform="matrix(1, 0, 0, 0.9999999999999999, 0, -2.842170943040401e-14)"/>
  <path d="M 1079.963 626.731 C 1100.937 641.75 1129.893 639.629 1148.37 621.722 C 1150.176 619.964 1147.475 617.128 1145.668 618.891 C 1128.486 635.599 1101.478 637.525 1082.024 623.42 C 1079.976 621.939 1077.927 625.261 1079.963 626.731 Z" fill="#fff" style="" transform="matrix(1, 0, 0, 0.9999999999999999, 0, -2.842170943040401e-14)"/>
  <path d="M 987.396 682.276 C 983.191 657.384 988.689 631.848 1002.797 610.763 C 1004.197 608.675 1000.822 606.653 999.428 608.735 C 984.785 630.707 979.119 657.289 983.552 683.185 C 983.977 685.653 987.818 684.731 987.396 682.276 Z" fill="#fff" style="" transform="matrix(1, 0, 0, 0.9999999999999999, 0, -2.842170943040401e-14)"/>
  <path d="M 1137.734 528.941 C 1128.538 524.859 1122.049 516.51 1120.464 506.722 C 1120.074 504.251 1116.236 505.176 1116.623 507.631 C 1118.425 518.431 1125.56 527.654 1135.668 532.254 C 1136.604 532.774 1137.792 532.492 1138.387 531.609 C 1138.95 530.694 1138.658 529.502 1137.734 528.941 Z" fill="#fff" style="" transform="matrix(1, 0, 0, 0.9999999999999999, 0, -2.842170943040401e-14)"/>
  <path d="M 870.689 357.334 C 870.893 358.883 871.091 360.433 871.265 362.008 C 873.85 382.861 874.704 403.889 873.821 424.884 C 873.778 426.508 873.711 428.152 873.623 429.772 C 870.948 480.324 858.737 529.953 837.618 576.124 C 829.199 594.49 819.365 612.199 808.21 629.103 C 792.802 652.444 774.204 676.547 767.735 702.754 C 767.029 705.478 766.495 708.247 766.137 711.038 L 860.617 820.607 C 860.961 820.754 861.277 820.916 861.618 821.064 L 865.19 825.606 C 865.826 824.773 866.47 823.9 867.105 823.066 C 867.477 822.584 867.83 822.078 868.201 821.597 C 868.439 821.267 868.683 820.938 868.918 820.657 C 868.998 820.547 869.079 820.438 869.133 820.349 C 869.371 820.065 869.559 819.778 869.773 819.518 C 873.378 814.626 876.956 809.704 880.509 804.75 C 880.532 804.725 880.532 804.725 880.539 804.681 C 907.483 766.843 931.449 726.465 948.421 683.796 C 948.929 682.511 949.468 681.204 949.935 679.872 C 957.474 660.596 963.398 640.746 967.648 620.526 C 969.936 609.445 971.653 598.257 972.792 587.006 C 975.675 557.928 973.888 528.587 967.486 500.055 C 954.722 443.179 923.583 390.948 874.469 359.686 C 873.207 358.889 871.976 358.113 870.689 357.334 Z" style="fill: rgba(108, 99, 255, 0.23);" transform="matrix(1, 0, 0, 0.9999999999999999, 0, -2.842170943040401e-14)"/>
  <path d="M 869.488 358.756 C 905.503 422.498 920.157 495.769 911.367 568.155 C 909.39 583.655 906.011 599.205 899.202 613.403 C 892.457 627.192 882.078 638.959 869.136 647.474 C 857.238 655.653 844.101 662.66 834.429 673.541 C 824.241 685.004 820.551 699.786 822.287 714.748 C 824.416 733.058 833.111 749.526 842.186 765.337 C 852.26 782.893 863.007 800.974 864.27 821.569 C 864.423 824.064 868.358 823.683 868.204 821.192 C 866 785.362 837.155 758.888 828.261 725.08 C 824.113 709.306 824.78 692.21 835.142 678.824 C 844.202 667.121 857.74 659.88 869.865 651.702 C 882.592 643.114 893.18 632.941 900.523 619.464 C 908.037 605.675 912.041 590.223 914.415 574.843 C 919.534 539.929 919.031 504.438 912.929 469.682 C 906.182 429.969 892.577 391.684 872.689 356.482 C 871.457 354.304 868.262 356.593 869.488 358.756 Z" fill="#fff" style="" transform="matrix(1, 0, 0, 0.9999999999999999, 0, -2.842170943040401e-14)"/>
  <path d="M 915.596 545.01 C 941.543 544.597 963.369 525.776 967.146 500.558 C 967.507 498.084 963.617 497.415 963.253 499.89 C 959.773 523.392 939.385 540.902 915.211 541.146 C 912.667 541.178 913.064 545.039 915.596 545.01 Z" fill="#fff" style="" transform="matrix(1, 0, 0, 0.9999999999999999, 0, -2.842170943040401e-14)"/>
  <path d="M 875.729 644.107 C 857.113 626.719 845.856 603.078 844.197 577.897 C 844.036 575.406 840.1 575.781 840.26 578.275 C 842.038 604.476 853.808 629.054 873.217 647.106 C 875.069 648.823 877.568 645.817 875.729 644.107 Z" fill="#fff" style="" transform="matrix(1, 0, 0, 0.9999999999999999, 0, -2.842170943040401e-14)"/>
  <path d="M 901.783 432.764 C 891.94 434.944 881.647 432.115 874.379 425.239 C 872.553 423.496 870.052 426.505 871.869 428.235 C 879.927 435.795 891.276 438.937 902.167 436.628 C 903.233 436.492 904.009 435.565 903.943 434.506 C 903.83 433.443 902.868 432.665 901.783 432.764 Z" fill="#fff" style="" transform="matrix(1, 0, 0, 0.9999999999999999, 0, -2.842170943040401e-14)"/>
  <path d="M 1222.802 70.61 L 107.419 70.61 C 106.316 70.584 105.653 69.381 106.226 68.442 C 106.481 68.027 106.93 67.769 107.419 67.757 L 1222.802 67.757 C 1223.902 67.783 1224.566 68.984 1223.992 69.924 C 1223.74 70.34 1223.289 70.598 1222.802 70.61 Z" fill="#cacaca" style="" transform="matrix(1, 0, 0, 0.9999999999999999, 0, -2.842170943040401e-14)"/>
  <ellipse cx="138.935" cy="34.958" rx="15.403" ry="15.687" fill="#3f3d56" style="" transform="matrix(1, 0, 0, 0.9999999999999999, 0, -2.842170943040401e-14)"/>
  <ellipse cx="192.147" cy="34.958" rx="15.403" ry="15.687" fill="#3f3d56" style="" transform="matrix(1, 0, 0, 0.9999999999999999, 0, -2.842170943040401e-14)"/>
  <ellipse cx="245.355" cy="34.958" rx="15.403" ry="15.687" fill="#3f3d56" style="" transform="matrix(1, 0, 0, 0.9999999999999999, 0, -2.842170943040401e-14)"/>
  <path d="M 268.586 799.884 C 220.127 748.199 195.19 670.815 221.316 605.4 C 259.818 671.802 320.983 722.691 394.002 749.057 C 422.196 759.124 454.624 767.436 469.939 792.779 C 479.471 808.549 480.147 828.284 475.829 846.125 C 471.505 863.966 462.637 880.368 453.849 896.548 L 453.796 901.127 C 385.166 881.31 317.052 851.57 268.586 799.884 Z" style="fill: rgba(108, 99, 255, 0.23);" transform="matrix(1, 0, 0, 0.9999999999999999, 0, -2.842170943040401e-14)"/>
  <path d="M 222.778 605.748 C 231.004 663.349 257.498 716.94 298.493 758.907 C 307.156 768.093 317.239 775.885 328.371 781.985 C 339.41 787.588 351.774 790.184 364.179 789.503 C 375.761 789.102 387.56 787.368 399.038 789.732 C 410.885 792.356 421.029 799.823 426.924 810.254 C 434.519 822.922 437.035 837.513 438.988 851.872 C 441.154 867.806 443.15 884.393 452.415 898.111 C 453.537 899.772 450.846 901.387 449.728 899.726 C 433.605 875.86 439.04 845.387 428.171 819.655 C 423.099 807.649 414.315 797.07 401.171 793.433 C 389.673 790.254 377.507 792.031 365.785 792.541 C 353.692 793.377 341.576 791.296 330.492 786.471 C 319.08 780.942 308.708 773.547 299.822 764.603 C 279.49 744.774 262.453 721.931 249.345 696.907 C 234.223 668.43 224.171 637.62 219.624 605.813 C 219.343 603.844 222.499 603.792 222.778 605.748 Z" fill="#fff" style="" transform="matrix(1, 0, 0, 0.9999999999999999, 0, -2.842170943040401e-14)"/>
  <path d="M 284.483 746.157 C 267.75 758.137 244.646 756.442 229.905 742.159 C 228.463 740.757 230.619 738.49 232.059 739.9 C 245.767 753.23 267.318 754.765 282.837 743.511 C 284.475 742.334 286.11 744.981 284.483 746.157 Z" fill="#fff" style="" transform="matrix(1, 0, 0, 0.9999999999999999, 0, -2.842170943040401e-14)"/>
  <path d="M 358.336 790.471 C 361.694 770.612 357.303 750.237 346.046 733.414 C 344.933 731.748 347.622 730.137 348.737 731.799 C 360.418 749.325 364.938 770.536 361.405 791.192 C 361.061 793.162 357.999 792.428 358.336 790.471 Z" fill="#fff" style="" transform="matrix(1, 0, 0, 0.9999999999999999, 0, -2.842170943040401e-14)"/>
  <path d="M 238.391 668.135 C 245.73 664.88 250.904 658.219 252.168 650.411 C 252.479 648.438 255.547 649.176 255.232 651.136 C 253.797 659.75 248.104 667.107 240.037 670.776 C 239.291 671.193 238.341 670.969 237.87 670.262 C 237.422 669.533 237.657 668.584 238.391 668.135 Z" fill="#fff" style="" transform="matrix(1, 0, 0, 0.9999999999999999, 0, -2.842170943040401e-14)"/>
  <path d="M 451.446 531.222 C 451.286 532.457 451.128 533.694 450.991 534.947 C 448.925 551.586 448.244 568.363 448.948 585.112 C 448.982 586.409 449.037 587.722 449.108 589.011 C 451.246 629.346 460.986 668.939 477.834 705.782 C 484.552 720.432 492.398 734.563 501.297 748.046 C 513.592 766.667 528.429 785.897 533.59 806.806 C 534.153 808.982 534.576 811.189 534.864 813.418 L 459.483 900.839 C 459.214 900.949 458.959 901.084 458.685 901.2 L 455.839 904.822 C 455.33 904.161 454.816 903.462 454.307 902.798 C 454.012 902.413 453.73 902.01 453.434 901.625 C 453.244 901.362 453.052 901.099 452.862 900.875 C 452.798 900.788 452.734 900.701 452.69 900.63 C 452.498 900.405 452.351 900.175 452.182 899.964 C 449.305 896.063 446.447 892.136 443.618 888.182 C 443.596 888.164 443.596 888.164 443.595 888.129 C 422.093 857.94 402.97 825.724 389.429 791.679 C 389.025 790.658 388.598 789.618 388.222 788.551 C 382.21 773.173 377.481 757.34 374.093 741.205 C 372.266 732.362 370.897 723.438 369.99 714.46 C 367.687 691.262 369.119 667.851 374.218 645.09 C 384.404 599.71 409.249 558.041 448.437 533.098 C 449.438 532.459 450.422 531.838 451.446 531.222 Z" style="fill: rgba(108, 99, 255, 0.23);" transform="matrix(1, 0, 0, 0.9999999999999999, 0, -2.842170943040401e-14)"/>
  <path d="M 452.409 532.356 C 423.672 583.211 411.981 641.667 418.994 699.422 C 420.281 711.882 423.555 724.064 428.703 735.521 C 434.081 746.523 442.363 755.908 452.688 762.704 C 462.181 769.228 472.663 774.823 480.378 783.499 C 488.229 792.602 491.749 804.565 490.063 816.377 C 488.366 830.982 481.431 844.125 474.191 856.739 C 466.154 870.746 457.582 885.17 456.573 901.603 C 456.448 903.595 453.311 903.292 453.431 901.304 C 455.189 872.714 478.204 851.593 485.299 824.624 C 488.608 812.039 488.075 798.394 479.811 787.714 C 472.581 778.379 461.777 772.599 452.108 766.077 C 441.939 759.594 433.542 750.763 427.647 740.357 C 421.922 729.19 418.173 717.152 416.562 704.755 C 412.479 676.901 412.881 648.587 417.75 620.853 C 423.132 589.17 433.988 558.627 449.854 530.538 C 450.835 528.803 453.386 530.63 452.409 532.356 Z" fill="#fff" style="" transform="matrix(1, 0, 0, 0.9999999999999999, 0, -2.842170943040401e-14)"/>
  <path d="M 415.621 680.954 C 394.918 680.625 377.507 665.611 374.494 645.485 C 374.204 643.513 377.31 642.981 377.599 644.956 C 380.374 663.707 396.637 677.678 415.928 677.873 C 417.956 677.896 417.638 680.979 415.621 680.954 Z" fill="#fff" style="" transform="matrix(1, 0, 0, 0.9999999999999999, 0, -2.842170943040401e-14)"/>
  <path d="M 447.429 760.017 C 462.281 746.145 471.263 727.285 472.586 707.195 C 472.716 705.206 475.854 705.507 475.723 707.494 C 474.311 728.396 464.921 748.006 449.431 762.41 C 447.954 763.782 445.961 761.384 447.429 760.017 Z" fill="#fff" style="" transform="matrix(1, 0, 0, 0.9999999999999999, 0, -2.842170943040401e-14)"/>
  <path d="M 426.642 591.401 C 434.492 593.139 442.708 590.881 448.502 585.397 C 449.961 584.005 451.954 586.408 450.507 587.786 C 444.078 593.817 435.024 596.325 426.337 594.484 C 425.482 594.375 424.863 593.637 424.921 592.794 C 425.008 591.942 425.776 591.322 426.642 591.401 Z" fill="#fff" style="" transform="matrix(1, 0, 0, 0.9999999999999999, 0, -2.842170943040401e-14)"/>
  <path d="M 1140.082 171.139 L 263.683 171.139 C 256.076 171.147 251.311 162.947 255.107 156.38 C 256.874 153.324 260.144 151.442 263.683 151.446 L 1140.082 151.446 C 1147.691 151.437 1152.456 159.638 1148.66 166.205 C 1146.893 169.262 1143.622 171.143 1140.082 171.139 Z" fill="#8b86ee" style="" transform="matrix(1, 0, 0, 0.9999999999999999, 0, -2.842170943040401e-14)"/>
  <path d="M 968.405 206.951 L 263.683 206.951 C 256.076 206.951 251.321 198.744 255.125 192.181 C 256.89 189.135 260.152 187.257 263.683 187.257 L 968.405 187.257 C 976.013 187.257 980.77 195.463 976.964 202.027 C 975.199 205.073 971.937 206.951 968.405 206.951 Z" fill="#8b86ee" style="" transform="matrix(1, 0, 0, 0.9999999999999999, 0, -2.842170943040401e-14)"/>
  <path fill="#8B86EE" opacity="1.000000" stroke="none" d="M 1135.809 709.556 C 1135.809 712.347 1135.809 715.135 1135.486 718.563 C 1135.01 723.167 1135.666 727.388 1134.55 731.065 C 1131.094 742.504 1123.922 750.971 1112.533 755.301 C 1107.604 757.176 1102.41 758.41 1097.609 760.548 C 1077.254 769.616 1055.875 773.516 1033.744 774.015 C 1026.911 774.17 1020.097 774.742 1013.263 774.997 C 1004.449 775.321 995.611 776 986.817 775.671 C 970.054 775.042 953.316 773.803 936.51 772.544 C 934.892 771.593 933.335 770.917 931.577 769.982 C 922.222 765.126 917.871 756.745 914.845 747.315 C 914.412 747.474 913.98 747.636 913.547 747.796 C 913.547 754.299 913.547 760.803 913.42 767.734 C 913.203 771.058 913.109 773.955 913.004 777.275 C 913.013 784.122 913.026 790.543 913.016 797.398 C 912.991 833.795 912.979 869.758 913.026 905.726 C 913.027 907.788 913.506 909.849 913.815 912.349 C 913.945 916.611 913.314 920.608 914.205 924.232 C 919.527 945.902 925.195 967.489 930.753 989.098 C 936.421 1011.124 942.09 1033.15 947.836 1055.464 C 946.367 1055.547 945.187 1055.672 944.006 1055.672 C 928.277 1055.672 912.546 1055.659 896.823 1055.638 C 867.352 1055.601 837.887 1055.554 808.418 1055.136 C 803.661 1033.241 798.82 1011.733 794.16 990.186 C 789.943 970.697 785.766 951.196 781.872 931.643 C 778.857 916.524 776.351 901.3 773.535 886.138 C 771.801 876.794 769.771 867.505 768.118 858.146 C 765.38 842.653 762.779 827.132 760.242 811.611 C 758.467 800.713 756.869 789.789 755.243 778.867 C 753.555 767.502 751.877 756.13 750.295 744.749 C 748.525 731.999 746.798 719.246 745.191 706.475 C 744.068 697.598 743.22 688.687 742.171 679.802 C 740.428 665.08 738.528 650.384 736.883 635.65 C 735.938 627.179 735.48 618.653 734.593 610.171 C 733.277 597.582 731.777 585.009 730.421 572.061 C 730.435 570.697 730.386 569.705 730.403 568.29 C 730.273 563.518 729.839 559.163 729.958 554.828 C 730.034 552.066 730.937 549.326 731.772 546.694 C 739.033 550.779 745.947 554.833 752.972 558.689 C 757.649 561.257 762.274 564.823 767.305 565.68 C 778.202 567.526 789.341 567.92 800.671 569.122 C 811.129 569.431 821.294 569.527 831.883 569.634 C 841.878 569.644 851.453 569.491 861.014 569.771 C 863.156 569.833 865.247 571.423 867.231 572.605 C 862.386 578.217 857.428 583.344 853.123 588.972 C 851.936 590.521 851.873 593.94 852.738 595.838 C 854.072 598.766 856.944 600.095 860.361 598.34 C 864.762 596.083 869.194 593.89 873.903 591.871 C 875.126 596.471 876.059 600.876 876.992 605.277 C 877.24 605.233 877.49 605.184 877.736 605.137 C 877.218 599.785 876.703 594.435 876.326 588.795 C 877.786 586.854 878.901 584.959 880.471 583.59 C 883.914 580.579 887.594 577.83 891.447 575.12 C 896.688 579.215 901.653 583.166 906.78 587.399 C 908.913 590.28 910.889 592.871 913.037 595.732 C 916.66 600.701 920.167 605.355 923.527 610.113 C 926.105 613.76 929.355 615.456 933.886 614.78 C 943.155 613.391 948.239 619.042 952.625 626.045 C 953.846 627.991 955.623 629.835 957.573 631.021 C 962.714 634.157 968.047 636.982 973.383 639.782 C 980.924 643.741 987.377 650.082 996.672 650.284 C 999.946 650.356 1003.218 651.062 1006.481 651.559 C 1010.342 652.145 1014.192 652.817 1017.856 653.418 C 1017.378 648.483 1016.714 644.3 1016.626 640.104 C 1016.41 630.372 1014.879 620.892 1008.19 613.523 C 996.961 601.158 985.174 589.298 973.485 576.945 C 973.643 575.212 973.939 573.758 974.466 572.593 C 978.501 573.007 982.336 573.413 986.126 573.197 C 998.714 572.482 1010.776 569.974 1021.819 563.281 C 1033.073 556.457 1039.784 543.303 1037.472 530.493 C 1036.859 527.106 1036.662 523.024 1032.275 521.247 C 1028.568 518.741 1024.961 516.522 1021.177 514.078 C 1020.149 513.158 1019.293 512.469 1018.865 511.72 C 1021.422 511.663 1023.56 511.635 1025.697 511.669 C 1034.29 511.798 1042.441 513.862 1049.324 519.035 C 1053.967 522.527 1058.457 526.566 1061.965 531.171 C 1067.21 538.056 1072.478 545.217 1076.03 553.041 C 1081.927 566.03 1086.591 579.592 1091.548 592.998 C 1100.013 615.868 1108.317 638.794 1116.659 661.708 C 1121.66 675.422 1126.527 689.185 1131.647 702.85 C 1132.554 705.266 1134.4 707.33 1135.809 709.556 M 804.013 994.287 C 804.094 994.489 804.175 994.696 804.253 994.899 C 804.294 994.799 804.396 994.655 804.361 994.6 C 804.217 994.375 804.032 994.179 803.766 993.133 C 803.439 988.809 803.11 984.479 802.819 979.402 C 802.273 975.655 801.44 971.925 801.222 968.165 C 800.415 954.075 799.808 939.97 799.245 925.018 C 799.245 893.922 799.245 862.825 799.245 831.728 C 798.005 838.847 797.545 845.991 797.206 853.135 C 796.034 877.442 794.518 901.752 797.788 926.859 C 798.937 944.918 800.091 962.976 801.141 981.85 C 801.295 983.489 801.257 985.176 801.646 986.758 C 802.246 989.188 803.138 991.544 804.013 994.287 M 812.888 648.237 C 812.648 648.242 812.41 648.247 812.167 648.255 C 812.297 648.567 812.421 648.878 812.751 649.904 C 815.75 656.352 812.609 662.705 812.242 669.85 C 809.272 692.339 806.137 714.814 805.327 737.535 C 806.07 736.774 806.347 735.945 806.445 735.099 C 807.984 721.743 809.529 708.382 811.024 695.021 C 811.989 686.378 812.871 677.727 814.07 668.386 C 814.673 663.931 815.637 659.48 815.717 655.014 C 815.754 652.905 814.087 650.768 812.888 648.237 M 1052.437 543 C 1052.214 543.024 1051.999 543.048 1051.775 543.071 C 1051.92 543.392 1052.066 543.71 1052.387 544.632 C 1056.806 550.744 1061.231 556.862 1065.651 562.977 C 1066.047 562.705 1066.445 562.431 1066.838 562.16 C 1062.293 555.794 1059.142 548.493 1052.437 543 M 801.417 775.485 C 800.67 787.979 799.923 800.474 799.175 812.967 C 799.648 812.989 800.123 813.01 800.596 813.031 C 801.339 800.318 802.08 787.604 802.943 774.105 C 803.899 763.045 804.859 751.985 805.812 740.924 C 805.279 740.89 804.746 740.852 804.213 740.816 C 803.417 752.157 802.619 763.503 801.417 775.485 M 896.031 680.259 C 890.416 659.391 884.807 638.522 879.189 617.655 C 882.078 639.365 887.286 660.469 894.837 681.662 C 898.867 692.211 902.897 702.759 906.925 713.307 C 907.32 713.15 907.716 712.997 908.108 712.842 C 904.157 702.228 900.208 691.612 896.031 680.259 M 1020.584 713.243 C 1022.406 716.725 1024.222 720.21 1026.046 723.692 C 1026.523 723.474 1026.996 723.26 1027.473 723.041 C 1030.108 705.713 1025.704 688.989 1023.259 672.093 C 1018.837 685.412 1016.273 698.775 1020.584 713.243 M 978.849 674.87 C 975.235 678.844 971.621 682.816 968.01 686.787 C 968.404 687.246 968.798 687.71 969.195 688.167 C 980.541 674.06 996.708 666.631 1011.044 656.643 C 997.993 658.233 988.874 666.698 978.849 674.87 M 1066.919 579.121 C 1068.704 575.199 1066.991 572.627 1063.51 571.107 C 1060.846 569.94 1056.622 572.255 1055.867 575.091 C 1054.95 578.538 1056.778 581.136 1059.724 581.693 C 1061.797 582.084 1064.256 580.425 1066.919 579.121 M 1048.598 558.955 C 1051.498 556.638 1052.796 553.642 1049.878 550.894 C 1048.402 549.501 1045.211 548.734 1043.293 549.323 C 1040.837 550.078 1038.581 552.452 1040.078 555.758 C 1041.634 559.184 1044.062 561.094 1048.598 558.955 M 791.849 599.692 C 793.469 601.728 795.072 603.774 796.711 605.793 C 801.041 611.132 807.52 615.889 800.908 624.138 C 806.495 619.251 807.054 615.647 803.006 610.557 C 796.533 602.418 789.831 594.462 783.175 586.472 C 782.595 585.768 781.653 585.37 780.884 584.829 C 780.677 585.051 780.473 585.269 780.274 585.486 C 783.995 590.048 787.721 594.614 791.849 599.692 M 961.152 698.437 C 960.787 698.695 960.304 698.879 960.066 699.231 C 951.533 711.828 945.749 725.762 940.586 739.989 C 940.558 740.056 940.927 740.27 940.781 740.157 C 947.675 726.465 954.59 712.737 961.152 698.437 M 1044.724 658.017 C 1046.984 658.403 1049.241 658.791 1051.493 659.18 C 1039.533 656.385 1031.152 648.593 1023.396 639.794 C 1027.768 648.768 1034.964 654.38 1044.724 658.017 M 920.526 634.727 C 919.97 635.648 919.406 636.565 918.846 637.488 C 919.116 637.813 919.382 638.137 919.647 638.463 C 925.985 630.35 933.736 624.869 944.25 624.189 C 941.726 623.537 939.322 623.185 937.048 623.602 C 930.24 624.848 925.27 629.106 920.526 634.727 M 962.988 657.973 C 967.887 656.445 972.787 654.919 977.685 653.393 C 977.488 652.797 977.294 652.205 977.1 651.609 C 971.469 653.408 965.84 655.212 960.211 657.015 C 960.301 657.34 960.39 657.669 960.482 657.995 C 961.081 658.026 961.685 658.052 962.988 657.973 M 801.001 625.376 C 800.524 625.489 800.042 625.605 799.564 625.716 C 799.648 626.074 799.733 626.434 799.818 626.794 C 800.15 626.537 800.481 626.286 801.001 625.376 M 798.028 628.527 C 798.365 628.557 798.711 628.639 799.032 628.583 C 799.102 628.569 799.087 628.073 799.113 627.798 C 798.783 627.876 798.445 627.954 798.028 628.527 M 962.856 697.191 C 962.716 696.888 962.572 696.585 962.432 696.282 C 962.185 696.559 961.936 696.83 961.69 697.103 C 961.953 697.262 962.215 697.42 962.856 697.191 M 1050.948 541.948 C 1051.025 541.861 1051.169 541.776 1051.17 541.688 C 1051.173 541.6 1051.035 541.51 1050.962 541.421 C 1050.88 541.506 1050.796 541.589 1050.948 541.948 M 1022.598 638.048 C 1022.521 638.119 1022.395 638.18 1022.387 638.258 C 1022.378 638.337 1022.481 638.43 1022.533 638.521 C 1022.61 638.45 1022.684 638.378 1022.598 638.048 M 810.579 647.401 C 810.751 647.424 810.929 647.447 811.101 647.473 C 811.024 647.385 810.946 647.302 810.579 647.401 M 967.542 688.886 C 967.542 688.886 967.561 688.842 967.542 688.886 Z" style="" transform="matrix(1, 0, 0, 0.9999999999999999, 0, -2.842170943040401e-14)"/>
  <path fill="#8B86ED" opacity="1.000000" stroke="none" d="M 230.782 663.954 C 231.398 661.273 232.635 658.974 232.516 656.748 C 231.697 641.16 237.282 627.045 242.321 612.835 C 243.915 608.34 246.2 604.028 248.649 599.924 C 252.234 593.91 257.869 590.452 264.624 589.09 C 265.892 588.833 267.461 590.101 269.06 591.128 C 269.229 591.597 268.854 591.711 268.505 591.573 C 267.261 592.513 266.371 593.589 265.237 594.924 C 263.721 607.295 271.356 614.456 279.971 620.227 C 295.82 630.842 313.749 630.529 331.775 628.302 C 334.677 627.943 336.747 626.257 337.521 623.131 C 338.116 624.391 338.457 625.645 338.796 626.902 C 333.442 642.646 327.614 658.256 323.026 674.224 C 321.678 678.923 323.615 684.67 324.442 689.875 C 325.772 698.214 327.413 706.507 328.996 714.805 C 329.178 715.795 329.848 716.692 330.03 717.075 C 337.475 714.528 344.597 711.776 351.904 709.697 C 356.782 708.307 361.911 707.302 366.956 707.165 C 371.472 707.045 374.181 704.405 377.041 701.913 C 390.436 690.24 403.686 678.404 417.005 666.644 C 423.833 660.624 431.084 655.024 437.407 648.512 C 441.54 644.255 444.51 638.803 447.718 633.714 C 451.426 627.838 456.281 623.938 462.521 620.512 C 475.469 613.409 489.299 609.71 503.461 606.83 C 513.164 604.855 522.984 602.908 532.834 602.328 C 545.615 601.576 555.002 594.576 564.589 587.508 C 575.067 579.784 585.547 572.055 596.625 564.364 C 597.643 565.464 598.442 566.543 598.411 567.598 C 598.207 575.251 597.952 582.902 597.488 590.538 C 596.906 600.121 595.783 609.676 595.479 619.265 C 594.802 640.479 594.495 661.709 593.981 683.357 C 593.815 699.636 593.704 715.492 593.381 731.688 C 593.181 738.362 593.195 744.698 593.184 751.457 C 593.174 758.62 593.184 765.354 593.117 772.521 C 593.062 810.442 593.09 847.937 593.063 885.855 C 592.953 900.649 592.904 915.019 592.601 929.645 C 591.965 932.387 591.241 934.884 591.283 937.374 C 591.367 942.454 591.862 947.531 592.126 953.017 C 591.521 968.462 590.967 983.499 590.348 998.96 C 589.693 1011.712 589.108 1024.044 588.457 1036.766 C 587.788 1042.72 587.184 1048.285 586.37 1053.879 C 585.853 1054.041 585.706 1054.272 585.342 1054.659 C 577.832 1054.98 570.695 1055.245 563.31 1055.223 C 528.704 1054.876 494.339 1054.819 459.589 1054.743 C 455.748 1055.224 455.012 1053.673 455.653 1050.491 C 456.391 1046.793 456.879 1043.026 457.2 1039.264 C 457.714 1033.268 457.811 1027.238 458.425 1021.256 C 459.425 1011.49 460.734 1001.759 461.849 992.003 C 462.745 984.187 463.586 976.369 464.388 968.54 C 465.115 961.446 466.549 954.311 466.216 947.264 C 465.837 939.327 463.651 931.492 462.568 923.571 C 460.66 909.635 459.04 895.659 457.207 881.712 C 455.912 871.832 454.285 861.988 453.138 852.091 C 451.979 842.041 451.174 831.948 450.329 821.861 C 449.951 817.367 449.864 812.853 449.619 807.903 C 443.047 810.036 436.862 812.261 430.55 814.049 C 413.584 818.856 396.763 824.497 379.516 827.894 C 360.598 831.617 341.3 833.461 322.106 835.602 C 313.524 836.559 304.803 836.418 296.142 836.444 C 289.165 836.463 282.176 835.572 275.213 835.806 C 262.303 836.241 250.124 835.714 240.37 825.095 C 235.428 819.711 232.758 813.832 232.709 806.96 C 232.492 775.742 232.595 744.521 232.629 712.862 C 232.652 706.765 232.703 701.101 232.579 695.438 C 232.438 688.894 232.145 682.348 231.824 675.466 C 231.411 674.337 231.1 673.536 230.782 672.738 C 230.782 669.949 230.782 667.159 230.782 663.954 M 295.065 698.266 C 294.841 698.455 294.653 698.669 294.126 699.149 C 293.911 699.347 293.726 699.574 293.208 700.046 C 292.99 700.23 292.806 700.447 292.283 700.916 C 292.064 701.109 291.888 701.337 291.185 701.912 C 291.037 702.383 290.892 702.851 290.746 703.324 C 291.293 703.004 291.842 702.679 292.801 702.167 C 293.055 701.984 293.229 701.741 293.717 701.245 C 293.976 701.064 294.144 700.818 294.63 700.324 C 294.893 700.147 295.061 699.896 295.547 699.409 C 295.812 699.224 295.977 698.974 296.46 698.487 C 296.725 698.304 296.89 698.057 297.381 697.573 C 297.543 697.319 297.709 697.068 298.295 696.645 C 298.562 696.465 298.722 696.212 299.208 695.728 C 299.364 695.472 299.522 695.215 300.132 694.75 C 300.141 694.525 300.148 694.299 300.155 694.069 C 299.863 694.217 299.568 694.363 298.864 694.696 C 298.594 694.858 298.41 695.087 297.915 695.606 C 297.662 695.785 297.464 696.01 296.927 696.475 C 296.676 696.646 296.499 696.872 296.021 697.396 C 295.789 697.579 295.598 697.794 295.065 698.266 M 274.354 719.722 C 274.619 719.514 274.88 719.306 275.727 718.908 C 280.197 714.541 284.665 710.184 289.133 705.819 C 288.63 705.339 288.121 704.854 287.615 704.367 C 283.31 709.139 279.006 713.906 274.282 718.868 C 274.157 719.143 274.035 719.418 273.644 719.847 C 273.711 719.777 273.781 719.71 274.354 719.722 M 561.018 898.318 C 561.018 898.318 561.095 898.365 561.095 898.365 C 561.095 898.365 560.851 898.261 560.79 897.453 C 559.979 891.344 559.169 885.237 558.359 879.129 C 557.815 879.22 557.275 879.305 556.74 879.394 C 557.584 885.204 558.393 891.019 559.338 896.813 C 559.423 897.354 560.353 897.756 561.018 898.318 M 550.914 848.345 C 552.839 858.252 554.767 868.157 556.694 878.065 C 557.218 877.953 557.745 877.847 558.27 877.739 C 556.246 867.661 554.227 857.586 552.055 846.722 C 550.975 841.203 549.894 835.685 548.839 829.423 C 542.468 802.734 536.239 776.013 529.648 749.379 C 527.025 738.762 523.601 728.345 520.575 717.097 C 518.092 708.137 515.602 699.173 513.119 690.214 C 512.572 690.373 512.023 690.534 511.476 690.695 C 514.224 699.742 516.976 708.787 519.777 718.534 C 525.858 741.674 532.077 764.774 537.967 787.963 C 541.522 801.968 544.559 816.11 547.866 830.979 C 548.893 836.521 549.916 842.065 550.914 848.345 M 560.627 903.944 C 562.738 919.421 565.301 934.855 566.851 950.39 C 568.66 968.514 570.634 986.737 570.584 1004.909 C 570.54 1021.068 567.831 1037.224 566.283 1053.577 C 569.588 1053.577 573.32 1053.577 577.067 1053.577 C 574.625 1002.277 570.69 951.407 561.676 901.093 C 561.206 901.138 560.733 901.185 560.266 901.229 C 560.301 901.901 560.338 902.566 560.627 903.944 M 331.529 731.505 C 333.171 749.673 334.812 767.842 336.452 786.012 C 336.827 786.199 337.203 786.388 337.583 786.578 C 338.659 785.33 340.419 784.211 340.677 782.812 C 341.494 778.382 342.881 773.612 342.016 769.395 C 338.908 754.217 334.965 739.208 331.341 724.138 C 331.018 724.191 330.694 724.248 330.372 724.304 C 330.708 726.45 331.043 728.603 331.529 731.505 M 342.263 725.108 C 351.152 729.112 360.546 732.279 368.783 737.352 C 376.987 742.408 384.023 749.376 391.837 755.723 C 391.886 754.854 392.033 754.455 391.899 754.301 C 378.724 739.44 363.753 727.162 344.256 721.638 C 341.634 720.899 338.732 721.156 335.961 720.952 C 335.91 721.412 335.864 721.867 335.814 722.328 C 337.747 723.167 339.683 724.007 342.263 725.108 M 446.66 784.725 C 446.227 793.431 443.394 801.392 438.845 809.595 C 441.175 808.828 442.958 808.094 444.817 807.668 C 448.906 806.73 450.282 804.5 449.932 800.15 C 449.199 791.146 449.145 782.095 448.711 773.064 C 448.473 768.135 448.035 763.218 447.683 758.293 C 447.358 758.309 447.029 758.327 446.703 758.343 C 446.703 766.859 446.703 775.373 446.66 784.725 M 458.763 665.425 C 455.339 685.223 451.92 705.016 448.498 724.809 C 449.079 724.908 449.66 725.003 450.242 725.101 C 454.063 702.724 457.886 680.344 461.706 657.965 C 461.191 657.864 460.672 657.766 460.16 657.67 C 459.75 659.998 459.34 662.33 458.763 665.425 M 259.49 667.402 C 261.718 670.772 264.691 670.942 267.799 669.011 C 270.469 667.358 271.394 664.851 269.727 661.918 C 268.041 658.953 265.42 658.052 262.312 659.327 C 258.946 660.708 257.788 663.233 259.49 667.402 M 263.885 634.751 C 263.609 635.456 262.921 636.334 263.13 636.837 C 263.977 638.891 264.758 642.129 266.2 642.511 C 268.363 643.085 271.555 642.246 273.354 640.803 C 274.448 639.925 274.629 635.946 273.621 634.869 C 272.204 633.359 269.334 633.06 267.015 632.654 C 266.23 632.515 265.226 633.633 263.885 634.751 M 255.585 630.268 C 255.524 629.35 255.458 628.433 255.392 627.517 C 254.934 627.489 254.475 627.465 254.019 627.438 C 251.743 644.244 249.466 661.045 247.19 677.849 C 247.75 677.926 248.314 678.003 248.878 678.081 C 251.099 662.399 253.318 646.715 255.585 630.268 M 521.957 648.224 C 526.169 640.364 530.38 632.506 534.593 624.645 C 534.075 624.368 533.557 624.093 533.043 623.821 C 528.763 632.151 524.418 640.438 520.309 648.848 C 519.789 649.915 520.495 651.587 520.634 652.976 C 520.876 652.958 521.12 652.937 521.36 652.917 C 521.472 651.57 521.583 650.226 521.957 648.224 M 533.361 673.24 C 529.887 675.114 526.416 676.983 522.942 678.848 C 526.897 678.17 530.646 676.84 534.328 675.337 C 534.487 675.274 534.021 673.653 533.361 673.24 M 510.864 688.323 C 511.22 688.32 511.573 688.32 511.927 688.32 C 511.821 687.92 511.716 687.522 511.613 687.117 C 511.333 687.372 511.053 687.625 510.864 688.323 M 303.31 690.788 C 303.31 690.788 303.245 690.651 303.245 690.651 C 303.245 690.651 303.17 690.799 303.31 690.788 M 532.711 671.4 C 532.849 671.414 532.989 671.437 533.125 671.455 C 533.07 671.359 533.01 671.266 532.711 671.4 Z" style="" transform="matrix(1, 0, 0, 0.9999999999999999, 0, -2.842170943040401e-14)"/>
  <path fill="#3F3D56" opacity="1.000000" stroke="none" d="M 715.864 527.849 C 722.831 529.062 726.822 533.359 728.69 540.042 C 729.261 542.096 730.366 543.993 731.348 546.27 C 730.937 549.326 730.034 552.066 729.958 554.828 C 729.839 559.163 730.273 563.518 730.194 568.115 C 727.533 566.373 727.197 568.311 726.87 570.013 C 724.712 581.195 721.006 591.797 715.501 601.783 C 714.337 603.892 713.765 606.328 712.919 608.616 C 713.336 608.846 713.748 609.081 714.163 609.307 C 714.876 608.703 715.864 608.243 716.263 607.476 C 718.642 602.879 721.223 598.344 723.101 593.537 C 725.806 586.615 727.962 579.476 730.349 572.431 C 731.777 585.009 733.277 597.582 734.593 610.171 C 735.48 618.653 735.938 627.179 736.883 635.65 C 738.528 650.384 740.428 665.08 742.171 679.802 C 743.22 688.687 744.068 697.598 745.191 706.475 C 746.798 719.246 748.525 731.999 750.295 744.749 C 751.877 756.13 753.555 767.502 755.243 778.867 C 756.869 789.789 758.467 800.713 760.242 811.611 C 762.779 827.132 765.38 842.653 768.118 858.146 C 769.771 867.505 771.801 876.794 773.535 886.138 C 776.351 901.3 778.857 916.524 781.872 931.643 C 785.766 951.196 789.943 970.697 794.16 990.186 C 798.82 1011.733 803.661 1033.241 808.151 1055.27 C 807.462 1056.654 807.046 1057.527 806.626 1058.404 C 790.716 1058.404 774.801 1058.404 758.287 1058.036 C 756.014 1057.61 754.339 1057.492 752.672 1057.492 C 698.982 1057.481 645.304 1057.482 591.621 1057.482 C 590.555 1057.482 589.29 1057.833 588.472 1057.382 C 587.6 1056.904 587.152 1055.658 586.905 1054.724 C 587.932 1054.212 589.142 1053.712 589.138 1053.239 C 589.033 1047.615 588.758 1041.993 588.527 1036.37 C 589.108 1024.044 589.693 1011.712 590.697 998.869 C 591.431 997.71 592.003 997.073 592.019 996.422 C 592.38 982.814 592.692 969.203 592.946 955.595 C 592.967 954.605 592.457 953.605 592.19 952.608 C 591.862 947.531 591.367 942.454 591.283 937.374 C 591.241 934.884 591.965 932.387 592.847 929.788 C 593.534 929.171 593.874 928.654 593.874 928.138 C 593.901 914.891 593.914 901.647 593.863 888.4 C 593.862 887.407 593.381 886.42 593.119 885.429 C 593.09 847.937 593.062 810.442 593.442 772.438 C 594.326 769.86 594.801 767.792 595.279 765.709 C 598.033 769.092 600.823 772.511 603.613 775.937 C 601.859 769.763 599.244 764.367 596.693 758.94 C 595.464 756.331 594.365 753.67 593.207 751.031 C 593.195 744.698 593.181 738.362 593.628 731.874 C 594.326 731.117 594.78 730.515 594.786 729.91 C 594.822 715.248 594.826 700.582 594.778 685.916 C 594.777 684.921 594.296 683.926 594.04 682.933 C 594.495 661.709 594.802 640.479 595.479 619.265 C 595.783 609.676 596.906 600.121 597.488 590.538 C 597.952 582.902 598.207 575.251 598.411 567.598 C 598.442 566.543 597.643 565.464 596.906 564.225 C 597.183 563.049 598.481 561.828 598.258 561.061 C 595.646 552.108 598.764 545.639 606.434 540.969 C 606.81 540.737 607.107 540.37 607.852 540.042 C 608.559 541.968 608.942 543.907 609.138 545.861 C 610.138 555.941 612.209 565.533 621.008 572.019 C 629.271 578.11 637.425 584.374 645.934 590.109 C 651.485 593.847 657.586 596.77 663.174 600.209 C 660.077 604.709 656.523 608.772 654.625 613.508 C 652.79 618.062 646.475 620.135 648.599 626.814 C 653.861 619.469 659.117 612.123 664.272 604.924 C 667.86 606.269 670.844 607.384 673.831 608.505 C 672.284 605.622 670.568 603.475 668.623 601.557 C 667.856 600.794 666.594 600.53 665.569 599.726 C 666.687 598.384 667.64 597.067 668.918 596.383 C 683.245 588.744 694.508 577.229 706.083 566.265 C 713.343 559.387 719.258 551.332 715.502 539.765 C 714.348 536.212 715.672 531.843 715.864 527.849 M 682.791 613.17 C 681.605 612.14 680.416 611.106 679.23 610.078 C 678.926 610.505 678.631 610.933 678.334 611.36 C 679.827 612.192 681.321 613.024 683.088 614.44 C 686.726 617.24 690.335 620.082 694.04 622.783 C 694.442 623.08 695.979 622.692 696.029 622.43 C 696.183 621.668 696.11 620.314 695.658 620.071 C 691.47 617.826 688.409 613.224 682.791 613.17 M 620.945 607.395 C 615.444 597.601 609.944 587.813 604.336 577.827 C 601.762 584.237 620.278 618.453 628.298 620.201 C 625.952 616.129 623.607 612.058 620.945 607.395 M 676.227 608.651 C 676.182 608.984 676.135 609.318 676.093 609.654 C 676.333 609.656 676.568 609.659 676.806 609.661 C 676.769 609.324 676.737 608.992 676.227 608.651 M 609.705 781.173 C 609.814 781.325 609.93 781.474 610.036 781.623 C 610.012 781.415 609.99 781.203 609.705 781.173 Z" style="" transform="matrix(1, 0, 0, 0.9999999999999999, 0, -2.842170943040401e-14)"/>
  <path fill="#302E41" opacity="1.000000" stroke="none" d="M 682.408 324.81 C 687.858 325.732 692.88 326.635 697.898 327.575 C 711.963 330.215 725.309 334.991 737.396 342.617 C 744.128 346.865 747.694 353.565 749.005 361.754 C 750.326 370.019 748.242 377.716 747.215 385.688 C 745.928 395.704 745.783 405.865 744.913 416.621 C 742.793 422.79 738.463 425.542 733.219 426.786 C 729.178 427.746 725.756 428.748 725.397 433.802 C 725.308 435.02 723.991 436.153 723.242 437.324 C 722.815 437.261 722.388 437.203 721.961 437.138 C 720.856 432.889 719.524 428.685 718.696 424.382 C 717.568 418.534 717.157 412.529 715.83 406.734 C 714.044 398.943 709.583 393.187 701.541 390.932 C 699.339 390.313 697.076 389.391 694.866 389.447 C 682.376 389.749 669.85 389.796 657.424 390.92 C 644.475 392.09 633.796 398.235 625.17 408.194 C 619.681 414.528 617.613 414.65 610.161 410.758 C 605.93 408.551 602.235 409.644 599.396 412.804 C 596.885 415.597 594.761 418.899 593.148 422.302 C 588.579 431.961 584.386 441.796 579.987 451.536 C 578.57 454.676 576.971 457.741 575.814 460.112 C 573.912 453.814 571.97 447.38 570.026 440.945 C 566.071 433.696 562.279 426.34 558.089 419.235 C 556.126 415.915 553.106 413.239 551.044 409.965 C 547.051 403.632 548.701 397.487 553.045 392.179 C 557.36 386.909 562.175 382.033 566.978 377.189 C 576.766 367.315 584.762 356.261 589.754 343.191 C 593.323 333.849 601.429 331.795 609.907 330.35 C 619.136 328.774 628.384 327.257 637.646 325.874 C 640.335 325.476 643.105 325.637 646.004 325.177 C 658.102 324.81 670.039 324.81 682.408 324.81 Z" style="" transform="matrix(1, 0, 0, 0.9999999999999999, 0, -2.842170943040401e-14)"/>
  <path fill="#FEB7B7" opacity="1.000000" stroke="none" d="M 867.231 572.605 C 875.688 563.456 884.07 554.659 892.311 545.728 C 897.449 540.161 902.459 534.471 907.358 528.69 C 911.278 524.076 916.138 521.556 922.086 520.842 C 937.026 519.041 951.946 517.029 966.906 515.361 C 977.327 514.202 987.798 513.487 998.841 512.887 C 1002.633 513.734 1005.823 514.262 1009.76 514.917 C 1009.191 522.748 1009.406 530.607 1007.908 538.113 C 1004.952 552.919 996.662 563.777 982.002 569.007 C 979.358 569.95 976.824 571.198 974.243 572.303 C 973.939 573.758 973.643 575.212 973.459 577.321 C 973.471 585.303 972.959 586.005 965.935 588.22 C 963.054 589.131 960.208 590.27 957.257 590.776 C 955.186 591.129 952.697 591.189 950.864 590.347 C 945.838 588.037 941.065 585.17 936.169 582.57 C 935.708 582.325 934.969 582.177 934.538 582.37 C 931.408 583.787 927.053 584.493 925.493 586.956 C 922.336 591.944 918.028 594.066 912.866 595.458 C 910.889 592.871 908.913 590.28 907.06 587.157 C 907.284 586.027 907.428 585.434 907.48 584.831 C 908.209 576.655 908.674 568.414 915.317 562.238 C 915.885 561.709 915.712 559.568 915.1 558.796 C 914.517 558.052 912.569 557.515 911.82 557.941 C 908.016 560.119 904.15 562.327 900.806 565.126 C 897.304 568.054 894.365 571.661 891.178 574.973 C 887.594 577.83 883.914 580.579 880.471 583.59 C 878.901 584.959 877.786 586.854 876.091 588.907 C 875.015 590.096 874.313 590.881 873.611 591.669 C 869.194 593.89 864.762 596.083 860.361 598.34 C 856.944 600.095 854.072 598.766 852.738 595.838 C 851.873 593.94 851.936 590.521 853.123 588.972 C 857.428 583.344 862.386 578.217 867.231 572.605 Z" style="" transform="matrix(1, 0, 0, 0.9999999999999999, 0, -2.842170943040401e-14)"/>
  <path fill="#403E58" opacity="1.000000" stroke="none" d="M 974.466 572.593 C 976.824 571.198 979.358 569.95 982.002 569.007 C 996.662 563.777 1004.952 552.919 1007.908 538.113 C 1009.406 530.607 1009.191 522.748 1009.76 514.917 C 1005.823 514.262 1002.633 513.734 999.239 512.876 C 1005.633 506.494 1008.702 506.344 1015.213 511.566 C 1015.786 512.026 1016.926 511.781 1018.121 511.817 C 1019.293 512.469 1020.149 513.158 1020.974 514.249 C 1024.754 516.942 1028.566 519.239 1032.38 521.535 C 1036.662 523.024 1036.859 527.106 1037.472 530.493 C 1039.784 543.303 1033.073 556.457 1021.819 563.281 C 1010.776 569.974 998.714 572.482 986.126 573.197 C 982.336 573.413 978.501 573.007 974.466 572.593 Z" style="" transform="matrix(1, 0, 0, 0.9999999999999999, 0, -2.842170943040401e-14)"/>
  <path fill="#2D2A46" opacity="1.000000" stroke="none" d="M 1020.479 712.889 C 1016.273 698.775 1018.837 685.412 1023.259 672.093 C 1025.704 688.989 1030.108 705.713 1027.473 723.041 C 1026.996 723.26 1026.523 723.474 1026.046 723.692 C 1024.222 720.21 1022.406 716.725 1020.479 712.889 Z" style="" transform="matrix(1, 0, 0, 0.9999999999999999, 0, -2.842170943040401e-14)"/>
  <path fill="#FFFFFF" opacity="1.000000" stroke="none" d="M 891.447 575.12 C 894.365 571.661 897.304 568.054 900.806 565.126 C 904.15 562.327 908.016 560.119 911.82 557.941 C 912.569 557.515 914.517 558.052 915.1 558.796 C 915.712 559.568 915.885 561.709 915.317 562.238 C 908.674 568.414 908.209 576.655 907.48 584.831 C 907.428 585.434 907.284 586.027 906.904 586.87 C 901.653 583.166 896.688 579.215 891.447 575.12 Z" style="" transform="matrix(1, 0, 0, 0.9999999999999999, 0, -2.842170943040401e-14)"/>
  <path fill="#383458" opacity="1.000000" stroke="none" d="M 797.781 926.02 C 794.518 901.752 796.034 877.442 797.206 853.135 C 797.545 845.991 798.005 838.847 799.245 831.728 C 799.245 862.825 799.245 893.922 798.847 925.476 C 798.23 925.964 798.005 925.992 797.781 926.02 Z" style="" transform="matrix(1, 0, 0, 0.9999999999999999, 0, -2.842170943040401e-14)"/>
  <path fill="#312E4D" opacity="1.000000" stroke="none" d="M 979.098 674.653 C 988.874 666.698 997.993 658.233 1011.044 656.643 C 996.708 666.631 980.541 674.06 969.195 688.167 C 968.798 687.71 968.404 687.246 968.01 686.787 C 971.621 682.816 975.235 678.844 979.098 674.653 Z" style="" transform="matrix(1, 0, 0, 0.9999999999999999, 0, -2.842170943040401e-14)"/>
  <path fill="#312E47" opacity="1.000000" stroke="none" d="M 730.421 572.061 C 727.962 579.476 725.806 586.615 723.101 593.537 C 721.223 598.344 718.642 602.879 716.263 607.476 C 715.864 608.243 714.876 608.703 714.163 609.307 C 713.748 609.081 713.336 608.846 712.919 608.616 C 713.765 606.328 714.337 603.892 715.501 601.783 C 721.006 591.797 724.712 581.195 726.87 570.013 C 727.197 568.311 727.533 566.373 730.122 568.534 C 730.386 569.705 730.435 570.697 730.421 572.061 Z" style="" transform="matrix(1, 0, 0, 0.9999999999999999, 0, -2.842170943040401e-14)"/>
  <path fill="#373357" opacity="1.000000" stroke="none" d="M 894.803 680.985 C 887.286 660.469 882.078 639.365 879.189 617.655 C 884.807 638.522 890.416 659.391 895.778 680.621 C 895.287 680.985 895.044 680.985 894.803 680.985 Z" style="" transform="matrix(1, 0, 0, 0.9999999999999999, 0, -2.842170943040401e-14)"/>
  <path fill="#2D2A46" opacity="1.000000" stroke="none" d="M 913.547 767.302 C 913.547 760.803 913.547 754.299 913.547 747.796 C 913.98 747.636 914.412 747.474 914.845 747.315 C 917.871 756.745 922.222 765.126 931.147 769.985 C 925.123 769.268 919.334 768.288 913.547 767.302 Z" style="" transform="matrix(1, 0, 0, 0.9999999999999999, 0, -2.842170943040401e-14)"/>
  <path fill="#3A375D" opacity="1.000000" stroke="none" d="M 813.789 669.08 C 812.871 677.727 811.989 686.378 811.024 695.021 C 809.529 708.382 807.984 721.743 806.445 735.099 C 806.347 735.945 806.07 736.774 805.327 737.535 C 806.137 714.814 809.272 692.339 812.569 669.478 C 813.192 669.086 813.492 669.08 813.789 669.08 Z" style="" transform="matrix(1, 0, 0, 0.9999999999999999, 0, -2.842170943040401e-14)"/>
  <path fill="#2F2C49" opacity="1.000000" stroke="none" d="M 1066.732 579.401 C 1064.256 580.425 1061.797 582.084 1059.724 581.693 C 1056.778 581.136 1054.95 578.538 1055.867 575.091 C 1056.622 572.255 1060.846 569.94 1063.51 571.107 C 1066.991 572.627 1068.704 575.199 1066.732 579.401 Z" style="" transform="matrix(1, 0, 0, 0.9999999999999999, 0, -2.842170943040401e-14)"/>
  <path fill="#2E2B47" opacity="1.000000" stroke="none" d="M 1048.314 559.135 C 1044.062 561.094 1041.634 559.184 1040.078 555.758 C 1038.581 552.452 1040.837 550.078 1043.293 549.323 C 1045.211 548.734 1048.402 549.501 1049.878 550.894 C 1052.796 553.642 1051.498 556.638 1048.314 559.135 Z" style="" transform="matrix(1, 0, 0, 0.9999999999999999, 0, -2.842170943040401e-14)"/>
  <path fill="#332F4F" opacity="1.000000" stroke="none" d="M 913.016 797.398 C 913.327 798.044 913.864 799.12 913.864 800.196 C 913.892 837.154 913.862 874.115 913.805 911.496 C 913.506 909.849 913.027 907.788 913.026 905.726 C 912.979 869.758 912.991 833.795 913.016 797.398 Z" style="" transform="matrix(1, 0, 0, 0.9999999999999999, 0, -2.842170943040401e-14)"/>
  <path fill="#3B385F" opacity="1.000000" stroke="none" d="M 791.648 599.436 C 787.721 594.614 783.995 590.048 780.274 585.486 C 780.473 585.269 780.677 585.051 780.884 584.829 C 781.653 585.37 782.595 585.768 783.175 586.472 C 789.831 594.462 796.533 602.418 803.006 610.557 C 807.054 615.647 806.495 619.251 800.908 624.138 C 807.52 615.889 801.041 611.132 796.711 605.793 C 795.072 603.774 793.469 601.728 791.648 599.436 Z" style="" transform="matrix(1, 0, 0, 0.9999999999999999, 0, -2.842170943040401e-14)"/>
  <path fill="#403C67" opacity="1.000000" stroke="none" d="M 961.325 698.725 C 954.59 712.737 947.675 726.465 940.781 740.157 C 940.927 740.27 940.558 740.056 940.586 739.989 C 945.749 725.762 951.533 711.828 960.066 699.231 C 960.304 698.879 960.787 698.695 961.325 698.725 Z" style="" transform="matrix(1, 0, 0, 0.9999999999999999, 0, -2.842170943040401e-14)"/>
  <path fill="#332F4F" opacity="1.000000" stroke="none" d="M 797.785 926.441 C 798.005 925.992 798.23 925.964 798.79 925.906 C 799.808 939.97 800.415 954.075 801.222 968.165 C 801.44 971.925 802.273 975.655 802.604 979.891 C 802.01 980.599 801.626 980.816 801.242 981.037 C 800.091 962.976 798.937 944.918 797.785 926.441 Z" style="" transform="matrix(1, 0, 0, 0.9999999999999999, 0, -2.842170943040401e-14)"/>
  <path fill="#3B385F" opacity="1.000000" stroke="none" d="M 1044.371 657.922 C 1034.964 654.38 1027.768 648.768 1023.396 639.794 C 1031.152 648.593 1039.533 656.385 1051.493 659.18 C 1049.241 658.791 1046.984 658.403 1044.371 657.922 Z" style="" transform="matrix(1, 0, 0, 0.9999999999999999, 0, -2.842170943040401e-14)"/>
  <path fill="#383458" opacity="1.000000" stroke="none" d="M 920.718 634.469 C 925.27 629.106 930.24 624.848 937.048 623.602 C 939.322 623.185 941.726 623.537 944.25 624.189 C 933.736 624.869 925.985 630.35 919.647 638.463 C 919.382 638.137 919.116 637.813 918.846 637.488 C 919.406 636.565 919.97 635.648 920.718 634.469 Z" style="" transform="matrix(1, 0, 0, 0.9999999999999999, 0, -2.842170943040401e-14)"/>
  <path fill="#4D497E" opacity="1.000000" stroke="none" d="M 802.827 774.889 C 802.08 787.604 801.339 800.318 800.596 813.031 C 800.123 813.01 799.648 812.989 799.175 812.967 C 799.923 800.474 800.67 787.979 801.871 775.181 C 802.49 774.881 802.658 774.884 802.827 774.889 Z" style="" transform="matrix(1, 0, 0, 0.9999999999999999, 0, -2.842170943040401e-14)"/>
  <path fill="#464271" opacity="1.000000" stroke="none" d="M 894.817 681.324 C 895.044 680.985 895.287 680.985 895.89 680.992 C 900.208 691.612 904.157 702.228 908.108 712.842 C 907.716 712.997 907.32 713.15 906.925 713.307 C 902.897 702.759 898.867 692.211 894.817 681.324 Z" style="" transform="matrix(1, 0, 0, 0.9999999999999999, 0, -2.842170943040401e-14)"/>
  <path fill="#464271" opacity="1.000000" stroke="none" d="M 802.885 774.496 C 802.658 774.884 802.49 774.881 802.071 774.861 C 802.619 763.503 803.417 752.157 804.213 740.816 C 804.746 740.852 805.279 740.89 805.812 740.924 C 804.859 751.985 803.899 763.045 802.885 774.496 Z" style="" transform="matrix(1, 0, 0, 0.9999999999999999, 0, -2.842170943040401e-14)"/>
  <path fill="#514D85" opacity="1.000000" stroke="none" d="M 913.42 767.734 C 919.334 768.288 925.123 769.268 931.341 770.245 C 933.335 770.917 934.892 771.593 936.51 772.544 C 929.156 771.727 921.747 770.632 914.164 769.513 C 914.005 772.062 913.864 774.288 913.371 776.687 C 913.109 773.955 913.203 771.058 913.42 767.734 Z" style="" transform="matrix(1, 0, 0, 0.9999999999999999, 0, -2.842170943040401e-14)"/>
  <path fill="#39355A" opacity="1.000000" stroke="none" d="M 1052.786 543.35 C 1059.142 548.493 1062.293 555.794 1066.838 562.16 C 1066.445 562.431 1066.047 562.705 1065.651 562.977 C 1061.231 556.862 1056.806 550.744 1052.453 544.17 C 1052.521 543.707 1052.786 543.35 1052.786 543.35 Z" style="" transform="matrix(1, 0, 0, 0.9999999999999999, 0, -2.842170943040401e-14)"/>
  <path fill="#44406F" opacity="1.000000" stroke="none" d="M 813.931 668.733 C 813.492 669.08 813.192 669.086 812.674 669.099 C 812.609 662.705 815.75 656.352 812.818 649.423 C 812.891 648.941 813.194 648.639 813.194 648.639 C 814.087 650.768 815.754 652.905 815.717 655.014 C 815.637 659.48 814.673 663.931 813.931 668.733 Z" style="" transform="matrix(1, 0, 0, 0.9999999999999999, 0, -2.842170943040401e-14)"/>
  <path fill="#39355A" opacity="1.000000" stroke="none" d="M 962.64 658.026 C 961.685 658.052 961.081 658.026 960.482 657.995 C 960.39 657.669 960.301 657.34 960.211 657.015 C 965.84 655.212 971.469 653.408 977.1 651.609 C 977.294 652.205 977.488 652.797 977.685 653.393 C 972.787 654.919 967.887 656.445 962.64 658.026 Z" style="" transform="matrix(1, 0, 0, 0.9999999999999999, 0, -2.842170943040401e-14)"/>
  <path fill="#2F2C49" opacity="1.000000" stroke="none" d="M 1032.275 521.247 C 1028.566 519.239 1024.754 516.942 1021.149 514.474 C 1024.961 516.522 1028.568 518.741 1032.275 521.247 Z" style="" transform="matrix(1, 0, 0, 0.9999999999999999, 0, -2.842170943040401e-14)"/>
  <path fill="#5D589B" opacity="1.000000" stroke="none" d="M 800.671 569.122 C 810.608 568.913 820.832 568.916 831.258 569.271 C 821.294 569.527 811.129 569.431 800.671 569.122 Z" style="" transform="matrix(1, 0, 0, 0.9999999999999999, 0, -2.842170943040401e-14)"/>
  <path fill="#44406F" opacity="1.000000" stroke="none" d="M 801.191 981.443 C 801.626 980.816 802.01 980.599 802.587 980.269 C 803.11 984.479 803.439 988.809 803.825 993.547 C 803.887 993.958 803.905 993.931 803.905 993.931 C 803.138 991.544 802.246 989.188 801.646 986.758 C 801.257 985.176 801.295 983.489 801.191 981.443 Z" style="" transform="matrix(1, 0, 0, 0.9999999999999999, 0, -2.842170943040401e-14)"/>
  <path fill="#5A5591" opacity="1.000000" stroke="none" d="M 873.903 591.871 C 874.313 590.881 875.015 590.096 875.949 589.193 C 876.703 594.435 877.218 599.785 877.736 605.137 C 877.49 605.184 877.24 605.233 876.992 605.277 C 876.059 600.876 875.126 596.471 873.903 591.871 Z" style="" transform="matrix(1, 0, 0, 0.9999999999999999, 0, -2.842170943040401e-14)"/>
  <path fill="#3B385F" opacity="1.000000" stroke="none" d="M 800.907 625.703 C 800.481 626.286 800.15 626.537 799.818 626.794 C 799.733 626.434 799.648 626.074 799.564 625.716 C 800.042 625.605 800.524 625.489 800.907 625.703 Z" style="" transform="matrix(1, 0, 0, 0.9999999999999999, 0, -2.842170943040401e-14)"/>
  <path fill="#3B385F" opacity="1.000000" stroke="none" d="M 798.072 628.28 C 798.445 627.954 798.783 627.876 799.113 627.798 C 799.087 628.073 799.102 628.569 799.032 628.583 C 798.711 628.639 798.365 628.557 798.072 628.28 Z" style="" transform="matrix(1, 0, 0, 0.9999999999999999, 0, -2.842170943040401e-14)"/>
  <path fill="#403C67" opacity="1.000000" stroke="none" d="M 962.667 697.384 C 962.215 697.42 961.953 697.262 961.69 697.103 C 961.936 696.83 962.185 696.559 962.432 696.282 C 962.572 696.585 962.716 696.888 962.667 697.384 Z" style="" transform="matrix(1, 0, 0, 0.9999999999999999, 0, -2.842170943040401e-14)"/>
  <path fill="#44406F" opacity="1.000000" stroke="none" d="M 803.878 993.964 C 804.032 994.179 804.217 994.375 804.361 994.6 C 804.396 994.655 804.294 994.799 804.253 994.899 C 804.175 994.696 804.094 994.489 803.963 994.107 C 803.905 993.931 803.887 993.958 803.878 993.964 Z" style="" transform="matrix(1, 0, 0, 0.9999999999999999, 0, -2.842170943040401e-14)"/>
  <path fill="#39355A" opacity="1.000000" stroke="none" d="M 1050.83 541.811 C 1050.796 541.589 1050.88 541.506 1050.962 541.421 C 1051.035 541.51 1051.173 541.6 1051.17 541.688 C 1051.169 541.776 1051.025 541.861 1050.83 541.811 Z" style="" transform="matrix(1, 0, 0, 0.9999999999999999, 0, -2.842170943040401e-14)"/>
  <path fill="#39355A" opacity="1.000000" stroke="none" d="M 1052.366 543.866 C 1052.066 543.71 1051.92 543.392 1051.775 543.071 C 1051.999 543.048 1052.214 543.024 1052.615 543.172 C 1052.786 543.35 1052.521 543.707 1052.366 543.866 Z" style="" transform="matrix(1, 0, 0, 0.9999999999999999, 0, -2.842170943040401e-14)"/>
  <path fill="#3B385F" opacity="1.000000" stroke="none" d="M 1022.677 638.18 C 1022.684 638.378 1022.61 638.45 1022.533 638.521 C 1022.481 638.43 1022.378 638.337 1022.387 638.258 C 1022.395 638.18 1022.521 638.119 1022.677 638.18 Z" style="" transform="matrix(1, 0, 0, 0.9999999999999999, 0, -2.842170943040401e-14)"/>
  <path fill="#44406F" opacity="1.000000" stroke="none" d="M 810.724 647.307 C 810.946 647.302 811.024 647.385 811.101 647.473 C 810.929 647.447 810.751 647.424 810.724 647.307 Z" style="" transform="matrix(1, 0, 0, 0.9999999999999999, 0, -2.842170943040401e-14)"/>
  <path fill="#44406F" opacity="1.000000" stroke="none" d="M 812.72 649.066 C 812.421 648.878 812.297 648.567 812.167 648.255 C 812.41 648.247 812.648 648.242 813.043 648.438 C 813.194 648.639 812.891 648.941 812.72 649.066 Z" style="" transform="matrix(1, 0, 0, 0.9999999999999999, 0, -2.842170943040401e-14)"/>
  <path fill="#312E4D" opacity="1.000000" stroke="none" d="M 967.555 688.864 C 967.561 688.842 967.542 688.886 967.555 688.864 Z" style="" transform="matrix(1, 0, 0, 0.9999999999999999, 0, -2.842170943040401e-14)"/>
  <path fill="#FFB8B8" opacity="1.000000" stroke="none" d="M 570.03 441.338 C 571.97 447.38 573.912 453.814 575.814 460.112 C 576.971 457.741 578.57 454.676 579.987 451.536 C 584.386 441.796 588.579 431.961 593.148 422.302 C 594.761 418.899 596.885 415.597 599.396 412.804 C 602.235 409.644 605.93 408.551 610.161 410.758 C 617.613 414.65 619.681 414.528 625.17 408.194 C 633.796 398.235 644.475 392.09 657.424 390.92 C 669.85 389.796 682.376 389.749 694.866 389.447 C 697.076 389.391 699.339 390.313 701.541 390.932 C 709.583 393.187 714.044 398.943 715.83 406.734 C 717.157 412.529 717.568 418.534 718.696 424.382 C 719.524 428.685 720.856 432.889 721.961 437.138 C 722.388 437.203 722.815 437.261 723.242 437.324 C 723.991 436.153 725.308 435.02 725.397 433.802 C 725.756 428.748 729.178 427.746 733.219 426.786 C 738.463 425.542 742.793 422.79 744.895 417.05 C 750.766 429.733 753.188 443.149 752.66 457.32 C 752.083 472.809 747.69 486.945 739.581 499.943 C 733.917 509.027 726.88 516.967 718.38 523.562 C 717.285 524.408 716.761 525.993 715.917 527.544 C 715.672 531.843 714.348 536.212 715.502 539.765 C 719.258 551.332 713.343 559.387 706.083 566.265 C 694.508 577.229 683.245 588.744 668.918 596.383 C 667.64 597.067 666.687 598.384 665.507 600.049 C 665.116 601.349 664.801 602.015 664.117 603.473 C 663.768 601.719 663.605 600.891 663.439 600.062 C 657.586 596.77 651.485 593.847 645.934 590.109 C 637.425 584.374 629.271 578.11 621.008 572.019 C 612.209 565.533 610.138 555.941 609.138 545.861 C 608.942 543.907 608.559 541.968 608.033 539.798 C 607.353 536.587 607.333 533.441 606.316 530.664 C 605.415 528.188 603.846 525.571 601.833 523.95 C 584.375 509.935 574.002 491.6 570.317 469.819 C 568.775 460.703 570.042 451.105 570.03 441.338 Z" style="" transform="matrix(1, 0, 0, 0.9999999999999999, 0, -2.842170943040401e-14)"/>
  <path fill="#FEB7B7" opacity="1.000000" stroke="none" d="M 338.992 627.15 C 338.457 625.645 338.116 624.391 337.099 622.984 C 328.73 622.74 320.965 623.3 313.722 619.729 C 298.205 612.065 290.6 598.511 286.109 582.601 C 285.476 580.376 285.964 578.937 288.276 577.967 C 290.565 577.007 292.661 575.582 294.841 574.362 C 318.194 569.667 341.719 565.68 364.825 559.974 C 376.36 557.127 385.204 561.075 394.385 566.136 C 411.389 575.513 428.335 584.994 445.293 594.462 C 449.269 596.684 453.387 598.732 457.056 601.393 C 459.148 602.908 461.936 605.584 461.825 607.594 C 461.597 611.629 457.959 613.619 453.995 613.737 C 451.67 613.806 449.171 613.39 447.007 612.534 C 440.196 609.833 433.394 607.057 426.795 603.884 C 415.721 598.563 405.041 592.292 392.521 590.848 C 391.658 590.75 390.755 590.989 388.354 591.218 C 390.062 593.637 390.851 595.889 392.413 596.763 C 397.599 599.676 400.97 603.764 402.932 609.374 C 404.071 612.638 406.283 615.525 407.399 618.79 C 408.948 623.325 407.69 625.615 403.032 626.204 C 399.523 626.648 395.746 627.299 392.595 624.067 C 388.687 620.052 383.441 621.125 378.537 621.334 C 378.026 621.356 377.453 621.868 377.056 622.292 C 373.912 625.645 371.112 629.411 367.583 632.277 C 365.27 634.157 361.997 635.031 359.009 635.822 C 357.012 636.354 354.746 635.781 352.628 635.987 C 347.403 636.5 343.293 635.24 341.302 629.778 C 340.961 628.848 339.905 628.183 338.992 627.15 Z" style="" transform="matrix(1, 0, 0, 0.9999999999999999, 0, -2.842170943040401e-14)"/>
  <path fill="#403E58" opacity="1.000000" stroke="none" d="M 294.481 574.308 C 292.661 575.582 290.565 577.007 288.276 577.967 C 285.964 578.937 285.476 580.376 286.109 582.601 C 290.6 598.511 298.205 612.065 313.722 619.729 C 320.965 623.3 328.73 622.74 336.843 622.98 C 336.747 626.257 334.677 627.943 331.775 628.302 C 313.749 630.529 295.82 630.842 279.971 620.227 C 271.356 614.456 263.721 607.295 265.281 595.227 C 265.607 595.407 265.616 595.572 265.694 595.698 C 265.761 595.804 265.905 595.861 266.012 595.946 C 266.959 594.531 267.905 593.12 268.854 591.711 C 268.854 591.711 269.229 591.597 269.228 591.491 C 272.908 586.136 276.987 581.108 280.136 575.546 C 282.146 571.996 284.836 572.185 287.752 572.489 C 289.913 572.714 292 573.643 294.481 574.308 Z" style="" transform="matrix(1, 0, 0, 0.9999999999999999, 0, -2.842170943040401e-14)"/>
  <path fill="#302D4B" opacity="1.000000" stroke="none" d="M 560.502 903.589 C 560.338 902.566 560.301 901.901 560.266 901.229 C 560.733 901.185 561.206 901.138 561.676 901.093 C 570.69 951.407 574.625 1002.277 577.067 1053.577 C 573.32 1053.577 569.588 1053.577 566.283 1053.577 C 567.831 1037.224 570.54 1021.068 570.584 1004.909 C 570.634 986.737 568.66 968.514 566.851 950.39 C 565.301 934.855 562.738 919.421 560.502 903.589 Z" style="" transform="matrix(1, 0, 0, 0.9999999999999999, 0, -2.842170943040401e-14)"/>
  <path fill="#302D4B" opacity="1.000000" stroke="none" d="M 331.455 731.125 C 331.043 728.603 330.708 726.45 330.372 724.304 C 330.694 724.248 331.018 724.191 331.341 724.138 C 334.965 739.208 338.908 754.217 342.016 769.395 C 342.881 773.612 341.494 778.382 340.677 782.812 C 340.419 784.211 338.659 785.33 337.583 786.578 C 337.203 786.388 336.827 786.199 336.452 786.012 C 334.812 767.842 333.171 749.673 331.455 731.125 Z" style="" transform="matrix(1, 0, 0, 0.9999999999999999, 0, -2.842170943040401e-14)"/>
  <path fill="#322F4E" opacity="1.000000" stroke="none" d="M 341.944 724.974 C 339.683 724.007 337.747 723.167 335.814 722.328 C 335.864 721.867 335.91 721.412 335.961 720.952 C 338.732 721.156 341.634 720.899 344.256 721.638 C 363.753 727.162 378.724 739.44 391.899 754.301 C 392.033 754.455 391.886 754.854 391.837 755.723 C 384.023 749.376 376.987 742.408 368.783 737.352 C 360.546 732.279 351.152 729.112 341.944 724.974 Z" style="" transform="matrix(1, 0, 0, 0.9999999999999999, 0, -2.842170943040401e-14)"/>
  <path fill="#4A467A" opacity="1.000000" stroke="none" d="M 547.831 830.189 C 544.559 816.11 541.522 801.968 537.967 787.963 C 532.077 764.774 525.858 741.674 519.955 718.186 C 520.132 717.839 520.54 717.839 520.54 717.839 C 523.601 728.345 527.025 738.762 529.648 749.379 C 536.239 776.013 542.468 802.734 548.583 829.798 C 548.16 830.177 547.995 830.184 547.831 830.189 Z" style="" transform="matrix(1, 0, 0, 0.9999999999999999, 0, -2.842170943040401e-14)"/>
  <path fill="#312E4D" opacity="1.000000" stroke="none" d="M 446.682 784.308 C 446.703 775.373 446.703 766.859 446.703 758.343 C 447.029 758.327 447.358 758.309 447.683 758.293 C 448.035 763.218 448.473 768.135 448.711 773.064 C 449.145 782.095 449.199 791.146 449.932 800.15 C 450.282 804.5 448.906 806.73 444.817 807.668 C 442.958 808.094 441.175 808.828 438.845 809.595 C 443.394 801.392 446.227 793.431 446.682 784.308 Z" style="" transform="matrix(1, 0, 0, 0.9999999999999999, 0, -2.842170943040401e-14)"/>
  <path fill="#3B385F" opacity="1.000000" stroke="none" d="M 458.848 665.042 C 459.34 662.33 459.75 659.998 460.16 657.67 C 460.672 657.766 461.191 657.864 461.706 657.965 C 457.886 680.344 454.063 702.724 450.242 725.101 C 449.66 725.003 449.079 724.908 448.498 724.809 C 451.92 705.016 455.339 685.223 458.848 665.042 Z" style="" transform="matrix(1, 0, 0, 0.9999999999999999, 0, -2.842170943040401e-14)"/>
  <path fill="#2E2B47" opacity="1.000000" stroke="none" d="M 259.363 667.074 C 257.788 663.233 258.946 660.708 262.312 659.327 C 265.42 658.052 268.041 658.953 269.727 661.918 C 271.394 664.851 270.469 667.358 267.799 669.011 C 264.691 670.942 261.718 670.772 259.363 667.074 Z" style="" transform="matrix(1, 0, 0, 0.9999999999999999, 0, -2.842170943040401e-14)"/>
  <path fill="#2E2B47" opacity="1.000000" stroke="none" d="M 264.107 634.462 C 265.226 633.633 266.23 632.515 267.015 632.654 C 269.334 633.06 272.204 633.359 273.621 634.869 C 274.629 635.946 274.448 639.925 273.354 640.803 C 271.555 642.246 268.363 643.085 266.2 642.511 C 264.758 642.129 263.977 638.891 263.13 636.837 C 262.921 636.334 263.609 635.456 264.107 634.462 Z" style="" transform="matrix(1, 0, 0, 0.9999999999999999, 0, -2.842170943040401e-14)"/>
  <path fill="#39355A" opacity="1.000000" stroke="none" d="M 255.562 630.651 C 253.318 646.715 251.099 662.399 248.878 678.081 C 248.314 678.003 247.75 677.926 247.19 677.849 C 249.466 661.045 251.743 644.244 254.019 627.438 C 254.475 627.465 254.934 627.489 255.392 627.517 C 255.458 628.433 255.524 629.35 255.562 630.651 Z" style="" transform="matrix(1, 0, 0, 0.9999999999999999, 0, -2.842170943040401e-14)"/>
  <path fill="#2A2740" opacity="1.000000" stroke="none" d="M 593.184 751.457 C 594.365 753.67 595.464 756.331 596.693 758.94 C 599.244 764.367 601.859 769.763 603.613 775.937 C 600.823 772.511 598.033 769.092 595.279 765.709 C 594.801 767.792 594.326 769.86 593.527 772.014 C 593.184 765.354 593.174 758.62 593.184 751.457 Z" style="" transform="matrix(1, 0, 0, 0.9999999999999999, 0, -2.842170943040401e-14)"/>
  <path fill="#3F3B66" opacity="1.000000" stroke="none" d="M 563.31 1055.223 C 529.148 1055.505 494.739 1055.499 460.154 1055.126 C 494.339 1054.819 528.704 1054.876 563.31 1055.223 Z" style="" transform="matrix(1, 0, 0, 0.9999999999999999, 0, -2.842170943040401e-14)"/>
  <path fill="#2F2C49" opacity="1.000000" stroke="none" d="M 592.126 953.017 C 592.457 953.605 592.967 954.605 592.946 955.595 C 592.692 969.203 592.38 982.814 592.019 996.422 C 592.003 997.073 591.431 997.71 590.769 998.444 C 590.967 983.499 591.521 968.462 592.126 953.017 Z" style="" transform="matrix(1, 0, 0, 0.9999999999999999, 0, -2.842170943040401e-14)"/>
  <path fill="#39355A" opacity="1.000000" stroke="none" d="M 521.825 648.553 C 521.583 650.226 521.472 651.57 521.36 652.917 C 521.12 652.937 520.876 652.958 520.634 652.976 C 520.495 651.587 519.789 649.915 520.309 648.848 C 524.418 640.438 528.763 632.151 533.043 623.821 C 533.557 624.093 534.075 624.368 534.593 624.645 C 530.38 632.506 526.169 640.364 521.825 648.553 Z" style="" transform="matrix(1, 0, 0, 0.9999999999999999, 0, -2.842170943040401e-14)"/>
  <path fill="#464271" opacity="1.000000" stroke="none" d="M 552.207 847.508 C 554.227 857.586 556.246 867.661 558.27 877.739 C 557.745 877.847 557.218 877.953 556.694 878.065 C 554.767 868.157 552.839 858.252 551.247 847.955 C 551.785 847.543 551.995 847.528 552.207 847.508 Z" style="" transform="matrix(1, 0, 0, 0.9999999999999999, 0, -2.842170943040401e-14)"/>
  <path fill="#464271" opacity="1.000000" stroke="none" d="M 520.558 717.472 C 520.54 717.839 520.132 717.839 519.926 717.835 C 516.976 708.787 514.224 699.742 511.476 690.695 C 512.023 690.534 512.572 690.373 513.119 690.214 C 515.602 699.173 518.092 708.137 520.558 717.472 Z" style="" transform="matrix(1, 0, 0, 0.9999999999999999, 0, -2.842170943040401e-14)"/>
  <path fill="#2A2740" opacity="1.000000" stroke="none" d="M 593.981 683.357 C 594.296 683.926 594.777 684.921 594.778 685.916 C 594.826 700.582 594.822 715.248 594.786 729.91 C 594.78 730.515 594.326 731.117 593.841 731.537 C 593.704 715.492 593.815 699.636 593.981 683.357 Z" style="" transform="matrix(1, 0, 0, 0.9999999999999999, 0, -2.842170943040401e-14)"/>
  <path fill="#2A2740" opacity="1.000000" stroke="none" d="M 593.063 885.855 C 593.381 886.42 593.862 887.407 593.863 888.4 C 593.914 901.647 593.901 914.891 593.874 928.138 C 593.874 928.654 593.534 929.171 593.104 929.538 C 592.904 915.019 592.953 900.649 593.063 885.855 Z" style="" transform="matrix(1, 0, 0, 0.9999999999999999, 0, -2.842170943040401e-14)"/>
  <path fill="#383458" opacity="1.000000" stroke="none" d="M 274.702 718.675 C 279.006 713.906 283.31 709.139 287.615 704.367 C 288.121 704.854 288.63 705.339 289.133 705.819 C 284.665 710.184 280.197 714.541 275.325 718.897 C 274.924 718.887 274.702 718.675 274.702 718.675 Z" style="" transform="matrix(1, 0, 0, 0.9999999999999999, 0, -2.842170943040401e-14)"/>
  <path fill="#403C67" opacity="1.000000" stroke="none" d="M 560.889 898.225 C 560.353 897.756 559.423 897.354 559.338 896.813 C 558.393 891.019 557.584 885.204 556.74 879.394 C 557.275 879.305 557.815 879.22 558.359 879.129 C 559.169 885.237 559.979 891.344 560.836 897.85 C 560.875 898.248 560.889 898.225 560.889 898.225 Z" style="" transform="matrix(1, 0, 0, 0.9999999999999999, 0, -2.842170943040401e-14)"/>
  <path fill="#44406F" opacity="1.000000" stroke="none" d="M 232.629 712.862 C 232.274 712.385 231.691 711.475 231.691 710.566 C 231.698 699.246 231.785 687.931 231.888 676.21 C 232.145 682.348 232.438 688.894 232.579 695.438 C 232.703 701.101 232.652 706.765 232.629 712.862 Z" style="" transform="matrix(1, 0, 0, 0.9999999999999999, 0, -2.842170943040401e-14)"/>
  <path fill="#2E2B47" opacity="1.000000" stroke="none" d="M 588.457 1036.766 C 588.758 1041.993 589.033 1047.615 589.138 1053.239 C 589.142 1053.712 587.932 1054.212 586.905 1054.724 C 586.519 1054.748 586.554 1054.734 586.563 1054.523 C 586.573 1054.306 586.578 1053.846 586.578 1053.846 C 587.184 1048.285 587.788 1042.72 588.457 1036.766 Z" style="" transform="matrix(1, 0, 0, 0.9999999999999999, 0, -2.842170943040401e-14)"/>
  <path fill="#3F3B66" opacity="1.000000" stroke="none" d="M 552.135 847.116 C 551.995 847.528 551.785 847.543 551.256 847.586 C 549.916 842.065 548.893 836.521 547.85 830.585 C 547.995 830.184 548.16 830.177 548.566 830.164 C 549.894 835.685 550.975 841.203 552.135 847.116 Z" style="" transform="matrix(1, 0, 0, 0.9999999999999999, 0, -2.842170943040401e-14)"/>
  <path fill="#44406F" opacity="1.000000" stroke="none" d="M 533.605 673.001 C 534.021 673.653 534.487 675.274 534.328 675.337 C 530.646 676.84 526.897 678.17 522.942 678.848 C 526.416 676.983 529.887 675.114 533.605 673.001 Z" style="" transform="matrix(1, 0, 0, 0.9999999999999999, 0, -2.842170943040401e-14)"/>
  <path fill="#FFFFFF" opacity="1.000000" stroke="none" d="M 268.505 591.573 C 267.905 593.12 266.959 594.531 266.012 595.946 C 265.905 595.861 265.761 595.804 265.694 595.698 C 265.616 595.572 265.607 595.407 265.523 594.962 C 266.371 593.589 267.261 592.513 268.505 591.573 Z" style="" transform="matrix(1, 0, 0, 0.9999999999999999, 0, -2.842170943040401e-14)"/>
  <path fill="#464271" opacity="1.000000" stroke="none" d="M 510.817 688.103 C 511.053 687.625 511.333 687.372 511.613 687.117 C 511.716 687.522 511.821 687.92 511.927 688.32 C 511.573 688.32 511.22 688.32 510.817 688.103 Z" style="" transform="matrix(1, 0, 0, 0.9999999999999999, 0, -2.842170943040401e-14)"/>
  <path fill="#383458" opacity="1.000000" stroke="none" d="M 292.387 702.356 C 291.842 702.679 291.293 703.004 290.746 703.324 C 290.892 702.851 291.037 702.383 291.614 701.956 C 292.158 702.121 292.273 702.236 292.387 702.356 Z" style="" transform="matrix(1, 0, 0, 0.9999999999999999, 0, -2.842170943040401e-14)"/>
  <path fill="#383458" opacity="1.000000" stroke="none" d="M 303.239 690.793 C 303.17 690.799 303.245 690.651 303.245 690.651 C 303.245 690.651 303.31 690.788 303.239 690.793 Z" style="" transform="matrix(1, 0, 0, 0.9999999999999999, 0, -2.842170943040401e-14)"/>
  <path fill="#403C67" opacity="1.000000" stroke="none" d="M 560.861 898.257 C 560.851 898.261 561.095 898.365 561.095 898.365 C 561.095 898.365 561.018 898.318 560.953 898.271 C 560.889 898.225 560.875 898.248 560.861 898.257 Z" style="" transform="matrix(1, 0, 0, 0.9999999999999999, 0, -2.842170943040401e-14)"/>
  <path fill="#3F3D56" opacity="1.000000" stroke="none" d="M 586.37 1053.879 C 586.578 1053.846 586.573 1054.306 586.552 1054.536 C 586.533 1054.765 586.123 1054.698 585.914 1054.647 C 585.706 1054.272 585.853 1054.041 586.37 1053.879 Z" style="" transform="matrix(1, 0, 0, 0.9999999999999999, 0, -2.842170943040401e-14)"/>
  <path fill="#383458" opacity="1.000000" stroke="none" d="M 275.035 718.993 C 274.88 719.306 274.619 719.514 274.116 719.696 C 273.874 719.67 273.907 719.691 273.907 719.691 C 274.035 719.418 274.157 719.143 274.492 718.771 C 274.702 718.675 274.924 718.887 275.035 718.993 Z" style="" transform="matrix(1, 0, 0, 0.9999999999999999, 0, -2.842170943040401e-14)"/>
  <path fill="#383458" opacity="1.000000" stroke="none" d="M 273.862 719.654 C 273.781 719.71 273.711 719.777 273.777 719.769 C 273.907 719.691 273.874 719.67 273.862 719.654 Z" style="" transform="matrix(1, 0, 0, 0.9999999999999999, 0, -2.842170943040401e-14)"/>
  <path fill="#383458" opacity="1.000000" stroke="none" d="M 293.302 701.429 C 293.229 701.741 293.055 701.984 292.594 702.26 C 292.273 702.236 292.158 702.121 291.894 701.795 C 291.888 701.337 292.064 701.109 292.622 701.002 C 293.076 701.205 293.189 701.32 293.302 701.429 Z" style="" transform="matrix(1, 0, 0, 0.9999999999999999, 0, -2.842170943040401e-14)"/>
  <path fill="#383458" opacity="1.000000" stroke="none" d="M 294.216 700.507 C 294.144 700.818 293.976 701.064 293.507 701.338 C 293.189 701.32 293.076 701.205 292.811 700.894 C 292.806 700.447 292.99 700.23 293.544 700.11 C 293.992 700.29 294.104 700.398 294.216 700.507 Z" style="" transform="matrix(1, 0, 0, 0.9999999999999999, 0, -2.842170943040401e-14)"/>
  <path fill="#383458" opacity="1.000000" stroke="none" d="M 297.869 696.812 C 297.709 697.068 297.543 697.319 297.023 697.507 C 296.668 697.445 296.379 697.151 296.379 697.151 C 296.499 696.872 296.676 696.646 297.261 696.515 C 297.595 696.549 297.869 696.812 297.869 696.812 Z" style="" transform="matrix(1, 0, 0, 0.9999999999999999, 0, -2.842170943040401e-14)"/>
  <path fill="#44406F" opacity="1.000000" stroke="none" d="M 532.831 671.285 C 533.01 671.266 533.07 671.359 533.125 671.455 C 532.989 671.437 532.849 671.414 532.831 671.285 Z" style="" transform="matrix(1, 0, 0, 0.9999999999999999, 0, -2.842170943040401e-14)"/>
  <path fill="#383458" opacity="1.000000" stroke="none" d="M 293.732 700.005 C 293.726 699.574 293.911 699.347 294.465 699.207 C 294.914 699.372 295.02 699.479 295.132 699.585 C 295.061 699.896 294.893 700.147 294.424 700.415 C 294.104 700.398 293.992 700.29 293.732 700.005 Z" style="" transform="matrix(1, 0, 0, 0.9999999999999999, 0, -2.842170943040401e-14)"/>
  <path fill="#383458" opacity="1.000000" stroke="none" d="M 299.274 694.508 C 299.568 694.363 299.863 694.217 300.155 694.069 C 300.148 694.299 300.141 694.525 299.803 694.744 C 299.474 694.737 299.274 694.508 299.274 694.508 Z" style="" transform="matrix(1, 0, 0, 0.9999999999999999, 0, -2.842170943040401e-14)"/>
  <path fill="#383458" opacity="1.000000" stroke="none" d="M 298.306 695.385 C 298.41 695.087 298.594 694.858 299.07 694.603 C 299.274 694.508 299.474 694.737 299.578 694.849 C 299.522 695.215 299.364 695.472 298.871 695.684 C 298.537 695.639 298.306 695.385 298.306 695.385 Z" style="" transform="matrix(1, 0, 0, 0.9999999999999999, 0, -2.842170943040401e-14)"/>
  <path fill="#383458" opacity="1.000000" stroke="none" d="M 294.653 699.092 C 294.653 698.669 294.841 698.455 295.4 698.315 C 295.736 698.36 296.046 698.661 296.046 698.661 C 295.977 698.974 295.812 699.224 295.342 699.499 C 295.02 699.479 294.914 699.372 294.653 699.092 Z" style="" transform="matrix(1, 0, 0, 0.9999999999999999, 0, -2.842170943040401e-14)"/>
  <path fill="#383458" opacity="1.000000" stroke="none" d="M 297.457 696.417 C 297.464 696.01 297.662 695.785 298.109 695.498 C 298.306 695.385 298.537 695.639 298.657 695.765 C 298.722 696.212 298.562 696.465 298.081 696.732 C 297.869 696.812 297.595 696.549 297.457 696.417 Z" style="" transform="matrix(1, 0, 0, 0.9999999999999999, 0, -2.842170943040401e-14)"/>
  <path fill="#383458" opacity="1.000000" stroke="none" d="M 295.588 698.205 C 295.598 697.794 295.789 697.579 296.202 697.275 C 296.379 697.151 296.668 697.445 296.812 697.596 C 296.89 698.057 296.725 698.304 296.251 698.572 C 296.046 698.661 295.736 698.36 295.588 698.205 Z" style="" transform="matrix(1, 0, 0, 0.9999999999999999, 0, -2.842170943040401e-14)"/>
  <path fill="#312E47" opacity="1.000000" stroke="none" d="M 621.101 607.69 C 623.607 612.058 625.952 616.129 628.298 620.201 C 620.278 618.453 601.762 584.237 604.336 577.827 C 609.944 587.813 615.444 597.601 621.101 607.69 Z" style="" transform="matrix(1, 0, 0, 0.9999999999999999, 0, -2.842170943040401e-14)"/>
  <path fill="#2D2B44" opacity="1.000000" stroke="none" d="M 663.174 600.209 C 663.605 600.891 663.768 601.719 664.117 603.473 C 664.801 602.015 665.116 601.349 665.494 600.364 C 666.594 600.53 667.856 600.794 668.623 601.557 C 670.568 603.475 672.284 605.622 673.831 608.505 C 670.844 607.384 667.86 606.269 664.272 604.924 C 659.117 612.123 653.861 619.469 648.599 626.814 C 646.475 620.135 652.79 618.062 654.625 613.508 C 656.523 608.772 660.077 604.709 663.174 600.209 Z" style="" transform="matrix(1, 0, 0, 0.9999999999999999, 0, -2.842170943040401e-14)"/>
  <path fill="#2D2B44" opacity="1.000000" stroke="none" d="M 682.865 613.806 C 688.409 613.224 691.47 617.826 695.658 620.071 C 696.11 620.314 696.183 621.668 696.029 622.43 C 695.979 622.692 694.442 623.08 694.04 622.783 C 690.335 620.082 686.726 617.24 682.965 614.136 C 682.84 613.829 682.865 613.806 682.865 613.806 Z" style="" transform="matrix(1, 0, 0, 0.9999999999999999, 0, -2.842170943040401e-14)"/>
  <path fill="#2D2B44" opacity="1.000000" stroke="none" d="M 682.829 613.844 C 681.321 613.024 679.827 612.192 678.334 611.36 C 678.631 610.933 678.926 610.505 679.23 610.078 C 680.416 611.106 681.605 612.14 682.833 613.486 C 682.865 613.806 682.84 613.829 682.829 613.844 Z" style="" transform="matrix(1, 0, 0, 0.9999999999999999, 0, -2.842170943040401e-14)"/>
  <path fill="#2D2B44" opacity="1.000000" stroke="none" d="M 676.459 608.652 C 676.737 608.992 676.769 609.324 676.806 609.661 C 676.568 609.659 676.333 609.656 676.093 609.654 C 676.135 609.318 676.182 608.984 676.459 608.652 Z" style="" transform="matrix(1, 0, 0, 0.9999999999999999, 0, -2.842170943040401e-14)"/>
  <path fill="#2A2740" opacity="1.000000" stroke="none" d="M 609.834 781.083 C 609.99 781.203 610.012 781.415 610.036 781.623 C 609.93 781.474 609.814 781.325 609.834 781.083 Z" style="" transform="matrix(1, 0, 0, 0.9999999999999999, 0, -2.842170943040401e-14)"/>
</svg>