<?xml version="1.0" encoding="utf-8"?>
<svg viewBox="-7.424 0 1397.211 1142.968" xmlns="http://www.w3.org/2000/svg">
  <path d="M 1077.049 709.267 C 1076.989 860.758 989.954 999.258 852.115 1067.205 C 848.654 1068.912 845.16 1070.571 841.629 1072.187 C 750.405 1113.771 646.782 1120.892 550.549 1092.176 C 541.106 1089.343 531.81 1086.186 522.667 1082.714 C 230.041 971.517 169.684 590.843 414.031 397.502 C 469.634 353.506 536.021 324.631 606.554 313.766 C 627.411 310.591 648.482 309.005 669.585 309.01 C 894.621 309.01 1077.049 488.206 1077.049 709.267 Z" style="fill: rgba(108, 99, 255, 0.1);" transform="matrix(1, 0, 0, 0.9999999999999998, 1.4210854715202004e-14, 0)"/>
  <path d="M 1106.604 766.31 C 1167.347 701.527 1198.601 604.535 1165.853 522.546 C 1117.601 605.774 1040.934 669.553 949.415 702.602 C 914.072 715.217 873.428 725.641 854.233 757.402 C 842.285 777.167 841.439 801.905 846.853 824.265 C 852.268 846.624 863.389 867.186 874.4 887.47 L 874.467 893.205 C 960.488 868.37 1045.86 831.096 1106.604 766.31 Z" style="fill: rgba(108, 99, 255, 0.23);" transform="matrix(1, 0, 0, 0.9999999999999998, 1.4210854715202004e-14, 0)"/>
  <path d="M 1164.022 522.982 C 1153.712 595.178 1120.505 662.345 1069.121 714.944 C 1058.042 726.148 1045.811 736.566 1031.675 743.875 C 1017.838 750.896 1002.339 754.151 986.79 753.299 C 972.273 752.79 957.49 750.619 943.097 753.587 C 927.933 756.711 915.931 766.332 908.148 779.309 C 898.625 795.183 895.476 813.471 893.027 831.463 C 890.311 851.442 887.81 872.233 876.198 889.426 C 874.791 891.509 878.162 893.535 879.568 891.453 C 899.775 861.54 892.965 823.341 906.586 791.092 C 912.94 776.041 923.95 762.783 940.428 758.223 C 954.834 754.238 970.087 756.464 984.779 757.103 C 1000.207 757.774 1014.889 755.913 1029.015 749.496 C 1043.464 742.929 1056.133 732.962 1067.457 722.087 C 1092.939 697.236 1114.29 668.602 1130.723 637.238 C 1149.676 601.545 1162.275 562.929 1167.972 523.06 C 1168.328 520.593 1164.371 520.529 1164.022 522.982 Z" fill="#fff" style="" transform="matrix(1, 0, 0, 0.9999999999999998, 1.4210854715202004e-14, 0)"/>
  <path d="M 1086.682 698.964 C 1107.656 713.983 1136.612 711.862 1155.089 693.955 C 1156.895 692.197 1154.194 689.361 1152.387 691.124 C 1135.205 707.832 1108.197 709.758 1088.743 695.653 C 1086.695 694.172 1084.646 697.494 1086.682 698.964 Z" fill="#fff" style="" transform="matrix(1, 0, 0, 0.9999999999999998, 1.4210854715202004e-14, 0)"/>
  <path d="M 994.115 754.509 C 989.91 729.617 995.408 704.081 1009.516 682.996 C 1010.916 680.908 1007.541 678.886 1006.147 680.968 C 991.504 702.94 985.838 729.522 990.271 755.418 C 990.696 757.886 994.537 756.964 994.115 754.509 Z" fill="#fff" style="" transform="matrix(1, 0, 0, 0.9999999999999998, 1.4210854715202004e-14, 0)"/>
  <path d="M 1144.453 601.174 C 1135.257 597.092 1128.768 588.743 1127.183 578.955 C 1126.793 576.484 1122.955 577.409 1123.342 579.864 C 1125.144 590.664 1132.279 599.887 1142.387 604.487 C 1143.323 605.007 1144.511 604.725 1145.106 603.842 C 1145.669 602.927 1145.377 601.735 1144.453 601.174 Z" fill="#fff" style="" transform="matrix(1, 0, 0, 0.9999999999999998, 1.4210854715202004e-14, 0)"/>
  <path d="M 877.408 429.567 C 877.612 431.116 877.81 432.666 877.984 434.241 C 880.569 455.094 881.423 476.122 880.54 497.117 C 880.497 498.741 880.43 500.385 880.342 502.005 C 877.667 552.557 865.456 602.186 844.337 648.357 C 835.918 666.723 826.084 684.432 814.929 701.336 C 799.521 724.677 780.923 748.78 774.454 774.987 C 773.748 777.711 773.214 780.48 772.856 783.271 L 867.336 892.84 C 867.68 892.987 867.996 893.149 868.337 893.297 L 871.909 897.839 C 872.545 897.006 873.189 896.133 873.824 895.299 C 874.196 894.817 874.549 894.311 874.92 893.83 C 875.158 893.5 875.402 893.171 875.637 892.89 C 875.717 892.78 875.798 892.671 875.852 892.582 C 876.09 892.298 876.278 892.011 876.492 891.751 C 880.097 886.859 883.675 881.937 887.228 876.983 C 887.251 876.958 887.251 876.958 887.258 876.914 C 914.202 839.076 938.168 798.698 955.14 756.029 C 955.648 754.744 956.187 753.437 956.654 752.105 C 964.193 732.829 970.117 712.979 974.367 692.759 C 976.655 681.678 978.372 670.49 979.511 659.239 C 982.394 630.161 980.607 600.82 974.205 572.288 C 961.441 515.412 930.302 463.181 881.188 431.919 C 879.926 431.122 878.695 430.346 877.408 429.567 Z" style="fill: rgba(108, 99, 255, 0.23);" transform="matrix(1, 0, 0, 0.9999999999999998, 1.4210854715202004e-14, 0)"/>
  <path d="M 876.207 430.989 C 912.222 494.731 926.876 568.002 918.086 640.388 C 916.109 655.888 912.73 671.438 905.921 685.636 C 899.176 699.425 888.797 711.192 875.855 719.707 C 863.957 727.886 850.82 734.893 841.148 745.774 C 830.96 757.237 827.27 772.019 829.006 786.981 C 831.135 805.291 839.83 821.759 848.905 837.57 C 858.979 855.126 869.726 873.207 870.989 893.802 C 871.142 896.297 875.077 895.916 874.923 893.425 C 872.719 857.595 843.874 831.121 834.98 797.313 C 830.832 781.539 831.499 764.443 841.861 751.057 C 850.921 739.354 864.459 732.113 876.584 723.935 C 889.311 715.347 899.899 705.174 907.242 691.697 C 914.756 677.908 918.76 662.456 921.134 647.076 C 926.253 612.162 925.75 576.671 919.648 541.915 C 912.901 502.202 899.296 463.917 879.408 428.715 C 878.176 426.537 874.981 428.826 876.207 430.989 Z" fill="#fff" style="" transform="matrix(1, 0, 0, 0.9999999999999998, 1.4210854715202004e-14, 0)"/>
  <path d="M 922.315 617.243 C 948.262 616.83 970.088 598.009 973.865 572.791 C 974.226 570.317 970.336 569.648 969.972 572.123 C 966.492 595.625 946.104 613.135 921.93 613.379 C 919.386 613.411 919.783 617.272 922.315 617.243 Z" fill="#fff" style="" transform="matrix(1, 0, 0, 0.9999999999999998, 1.4210854715202004e-14, 0)"/>
  <path d="M 882.448 716.34 C 863.832 698.952 852.575 675.311 850.916 650.13 C 850.755 647.639 846.819 648.014 846.979 650.508 C 848.757 676.709 860.527 701.287 879.936 719.339 C 881.788 721.056 884.287 718.05 882.448 716.34 Z" fill="#fff" style="" transform="matrix(1, 0, 0, 0.9999999999999998, 1.4210854715202004e-14, 0)"/>
  <path d="M 908.502 504.997 C 898.659 507.177 888.366 504.348 881.098 497.472 C 879.272 495.729 876.771 498.738 878.588 500.468 C 886.646 508.028 897.995 511.17 908.886 508.861 C 909.952 508.725 910.728 507.798 910.662 506.739 C 910.549 505.676 909.587 504.898 908.502 504.997 Z" fill="#fff" style="" transform="matrix(1, 0, 0, 0.9999999999999998, 1.4210854715202004e-14, 0)"/>
  <path d="M 1222.802 70.61 L 107.419 70.61 C 106.316 70.584 105.653 69.381 106.226 68.442 C 106.481 68.027 106.93 67.769 107.419 67.757 L 1222.802 67.757 C 1223.902 67.783 1224.566 68.984 1223.992 69.924 C 1223.74 70.34 1223.289 70.598 1222.802 70.61 Z" fill="#cacaca" style="" transform="matrix(1, 0, 0, 0.9999999999999998, 1.4210854715202004e-14, -2.842170943040401e-14)"/>
  <ellipse cx="138.935" cy="34.958" rx="15.403" ry="15.687" fill="#3f3d56" style="" transform="matrix(1, 0, 0, 0.9999999999999998, 1.4210854715202004e-14, -2.842170943040401e-14)"/>
  <ellipse cx="192.147" cy="34.958" rx="15.403" ry="15.687" fill="#3f3d56" style="" transform="matrix(1, 0, 0, 0.9999999999999998, 1.4210854715202004e-14, -2.842170943040401e-14)"/>
  <ellipse cx="245.355" cy="34.958" rx="15.403" ry="15.687" fill="#3f3d56" style="" transform="matrix(1, 0, 0, 0.9999999999999998, 1.4210854715202004e-14, -2.842170943040401e-14)"/>
  <path d="M 275.305 872.117 C 226.846 820.432 201.909 743.048 228.035 677.633 C 266.537 744.035 327.702 794.924 400.721 821.29 C 428.915 831.357 461.343 839.669 476.658 865.012 C 486.19 880.782 486.866 900.517 482.548 918.358 C 478.224 936.199 469.356 952.601 460.568 968.781 L 460.515 973.36 C 391.885 953.543 323.771 923.803 275.305 872.117 Z" style="fill: rgba(108, 99, 255, 0.23);" transform="matrix(1, 0, 0, 0.9999999999999998, 1.4210854715202004e-14, 0)"/>
  <path d="M 229.497 677.981 C 237.723 735.582 264.217 789.173 305.212 831.14 C 313.875 840.326 323.958 848.118 335.09 854.218 C 346.129 859.821 358.493 862.417 370.898 861.736 C 382.48 861.335 394.279 859.601 405.757 861.965 C 417.604 864.589 427.748 872.056 433.643 882.487 C 441.238 895.155 443.754 909.746 445.707 924.105 C 447.873 940.039 449.869 956.626 459.134 970.344 C 460.256 972.005 457.565 973.62 456.447 971.959 C 440.324 948.093 445.759 917.62 434.89 891.888 C 429.818 879.882 421.034 869.303 407.89 865.666 C 396.392 862.487 384.226 864.264 372.504 864.774 C 360.411 865.61 348.295 863.529 337.211 858.704 C 325.799 853.175 315.427 845.78 306.541 836.836 C 286.209 817.007 269.172 794.164 256.064 769.14 C 240.942 740.663 230.89 709.853 226.343 678.046 C 226.062 676.077 229.218 676.025 229.497 677.981 Z" fill="#fff" style="" transform="matrix(1, 0, 0, 0.9999999999999998, 1.4210854715202004e-14, 0)"/>
  <path d="M 291.202 818.39 C 274.469 830.37 251.365 828.675 236.624 814.392 C 235.182 812.99 237.338 810.723 238.778 812.133 C 252.486 825.463 274.037 826.998 289.556 815.744 C 291.194 814.567 292.829 817.214 291.202 818.39 Z" fill="#fff" style="" transform="matrix(1, 0, 0, 0.9999999999999998, 1.4210854715202004e-14, 0)"/>
  <path d="M 365.055 862.704 C 368.413 842.845 364.022 822.47 352.765 805.647 C 351.652 803.981 354.341 802.37 355.456 804.032 C 367.137 821.558 371.657 842.769 368.124 863.425 C 367.78 865.395 364.718 864.661 365.055 862.704 Z" fill="#fff" style="" transform="matrix(1, 0, 0, 0.9999999999999998, 1.4210854715202004e-14, 0)"/>
  <path d="M 245.11 740.368 C 252.449 737.113 257.623 730.452 258.887 722.644 C 259.198 720.671 262.266 721.409 261.951 723.369 C 260.516 731.983 254.823 739.34 246.756 743.009 C 246.01 743.426 245.06 743.202 244.589 742.495 C 244.141 741.766 244.376 740.817 245.11 740.368 Z" fill="#fff" style="" transform="matrix(1, 0, 0, 0.9999999999999998, 1.4210854715202004e-14, 0)"/>
  <path d="M 458.165 603.455 C 458.005 604.69 457.847 605.927 457.71 607.18 C 455.644 623.819 454.963 640.596 455.667 657.345 C 455.701 658.642 455.756 659.955 455.827 661.244 C 457.965 701.579 467.705 741.172 484.553 778.015 C 491.271 792.665 499.117 806.796 508.016 820.279 C 520.311 838.9 535.148 858.13 540.309 879.039 C 540.872 881.215 541.295 883.422 541.583 885.651 L 466.202 973.072 C 465.933 973.182 465.678 973.317 465.404 973.433 L 462.558 977.055 C 462.049 976.394 461.535 975.695 461.026 975.031 C 460.731 974.646 460.449 974.243 460.153 973.858 C 459.963 973.595 459.771 973.332 459.581 973.108 C 459.517 973.021 459.453 972.934 459.409 972.863 C 459.217 972.638 459.07 972.408 458.901 972.197 C 456.024 968.296 453.166 964.369 450.337 960.415 C 450.315 960.397 450.315 960.397 450.314 960.362 C 428.812 930.173 409.689 897.957 396.148 863.912 C 395.744 862.891 395.317 861.851 394.941 860.784 C 388.929 845.406 384.2 829.573 380.812 813.438 C 378.985 804.595 377.616 795.671 376.709 786.693 C 374.406 763.495 375.838 740.084 380.937 717.323 C 391.123 671.943 415.968 630.274 455.156 605.331 C 456.157 604.692 457.141 604.071 458.165 603.455 Z" style="fill: rgba(108, 99, 255, 0.23);" transform="matrix(1, 0, 0, 0.9999999999999998, 1.4210854715202004e-14, 0)"/>
  <path d="M 459.128 604.589 C 430.391 655.444 418.7 713.9 425.713 771.655 C 427 784.115 430.274 796.297 435.422 807.754 C 440.8 818.756 449.082 828.141 459.407 834.937 C 468.9 841.461 479.382 847.056 487.097 855.732 C 494.948 864.835 498.468 876.798 496.782 888.61 C 495.085 903.215 488.15 916.358 480.91 928.972 C 472.873 942.979 464.301 957.403 463.292 973.836 C 463.167 975.828 460.03 975.525 460.15 973.537 C 461.908 944.947 484.923 923.826 492.018 896.857 C 495.327 884.272 494.794 870.627 486.53 859.947 C 479.3 850.612 468.496 844.832 458.827 838.31 C 448.658 831.827 440.261 822.996 434.366 812.59 C 428.641 801.423 424.892 789.385 423.281 776.988 C 419.198 749.134 419.6 720.82 424.469 693.086 C 429.851 661.403 440.707 630.86 456.573 602.771 C 457.554 601.036 460.105 602.863 459.128 604.589 Z" fill="#fff" style="" transform="matrix(1, 0, 0, 0.9999999999999998, 1.4210854715202004e-14, 0)"/>
  <path d="M 422.34 753.187 C 401.637 752.858 384.226 737.844 381.213 717.718 C 380.923 715.746 384.029 715.214 384.318 717.189 C 387.093 735.94 403.356 749.911 422.647 750.106 C 424.675 750.129 424.357 753.212 422.34 753.187 Z" fill="#fff" style="" transform="matrix(1, 0, 0, 0.9999999999999998, 1.4210854715202004e-14, 0)"/>
  <path d="M 454.148 832.25 C 469 818.378 477.982 799.518 479.305 779.428 C 479.435 777.439 482.573 777.74 482.442 779.727 C 481.03 800.629 471.64 820.239 456.15 834.643 C 454.673 836.015 452.68 833.617 454.148 832.25 Z" fill="#fff" style="" transform="matrix(1, 0, 0, 0.9999999999999998, 1.4210854715202004e-14, 0)"/>
  <path d="M 433.361 663.634 C 441.211 665.372 449.427 663.114 455.221 657.63 C 456.68 656.238 458.673 658.641 457.226 660.019 C 450.797 666.05 441.743 668.558 433.056 666.717 C 432.201 666.608 431.582 665.87 431.64 665.027 C 431.727 664.175 432.495 663.555 433.361 663.634 Z" fill="#fff" style="" transform="matrix(1, 0, 0, 0.9999999999999998, 1.4210854715202004e-14, 0)"/>
  <path d="M 1140.082 171.139 L 263.683 171.139 C 256.076 171.147 251.311 162.947 255.107 156.38 C 256.874 153.324 260.144 151.442 263.683 151.446 L 1140.082 151.446 C 1147.691 151.437 1152.456 159.638 1148.66 166.205 C 1146.893 169.262 1143.622 171.143 1140.082 171.139 Z" fill="#8b86ee" style="" transform="matrix(1, 0, 0, 0.9999999999999998, 1.4210854715202004e-14, -2.842170943040401e-14)"/>
  <path d="M 968.405 206.951 L 263.683 206.951 C 256.076 206.951 251.321 198.744 255.125 192.181 C 256.89 189.135 260.152 187.257 263.683 187.257 L 968.405 187.257 C 976.013 187.257 980.77 195.463 976.964 202.027 C 975.199 205.073 971.937 206.951 968.405 206.951 Z" fill="#8b86ee" style="" transform="matrix(1, 0, 0, 0.9999999999999998, 1.4210854715202004e-14, -2.842170943040401e-14)"/>
  <path fill="#8B86EE" opacity="1.000000" stroke="none" d="M 1142.528 781.789 C 1142.528 784.58 1142.528 787.368 1142.205 790.796 C 1141.729 795.4 1142.385 799.621 1141.269 803.298 C 1137.813 814.737 1130.641 823.204 1119.252 827.534 C 1114.323 829.409 1109.129 830.643 1104.328 832.781 C 1083.973 841.849 1062.594 845.749 1040.463 846.248 C 1033.63 846.403 1026.816 846.975 1019.982 847.23 C 1011.168 847.554 1002.33 848.233 993.536 847.904 C 976.773 847.275 960.035 846.036 943.229 844.777 C 941.611 843.826 940.054 843.15 938.296 842.215 C 928.941 837.359 924.59 828.978 921.564 819.548 C 921.131 819.707 920.699 819.869 920.266 820.029 C 920.266 826.532 920.266 833.036 920.139 839.967 C 919.922 843.291 919.828 846.188 919.723 849.508 C 919.732 856.355 919.745 862.776 919.735 869.631 C 919.71 906.028 919.698 941.991 919.745 977.959 C 919.746 980.021 920.225 982.082 920.534 984.582 C 920.664 988.844 920.033 992.841 920.924 996.465 C 926.246 1018.135 931.914 1039.722 937.472 1061.331 C 943.14 1083.357 948.809 1105.383 954.555 1127.697 C 953.086 1127.78 951.906 1127.905 950.725 1127.905 C 934.996 1127.905 919.265 1127.892 903.542 1127.871 C 874.071 1127.834 844.606 1127.787 815.137 1127.369 C 810.38 1105.474 805.539 1083.966 800.879 1062.419 C 796.662 1042.93 792.485 1023.429 788.591 1003.876 C 785.576 988.757 783.07 973.533 780.254 958.371 C 778.52 949.027 776.49 939.738 774.837 930.379 C 772.099 914.886 769.498 899.365 766.961 883.844 C 765.186 872.946 763.588 862.022 761.962 851.1 C 760.274 839.735 758.596 828.363 757.014 816.982 C 755.244 804.232 753.517 791.479 751.91 778.708 C 750.787 769.831 749.939 760.92 748.89 752.035 C 747.147 737.313 745.247 722.617 743.602 707.883 C 742.657 699.412 742.199 690.886 741.312 682.404 C 739.996 669.815 738.496 657.242 737.14 644.294 C 737.154 642.93 737.105 641.938 737.122 640.523 C 736.992 635.751 736.558 631.396 736.677 627.061 C 736.753 624.299 737.656 621.559 738.491 618.927 C 745.752 623.012 752.666 627.066 759.691 630.922 C 764.368 633.49 768.993 637.056 774.024 637.913 C 784.921 639.759 796.06 640.153 807.39 641.355 C 817.848 641.664 828.013 641.76 838.602 641.867 C 848.597 641.877 858.172 641.724 867.733 642.004 C 869.875 642.066 871.966 643.656 873.95 644.838 C 869.105 650.45 864.147 655.577 859.842 661.205 C 858.655 662.754 858.592 666.173 859.457 668.071 C 860.791 670.999 863.663 672.328 867.08 670.573 C 871.481 668.316 875.913 666.123 880.622 664.104 C 881.845 668.704 882.778 673.109 883.711 677.51 C 883.959 677.466 884.209 677.417 884.455 677.37 C 883.937 672.018 883.422 666.668 883.045 661.028 C 884.505 659.087 885.62 657.192 887.19 655.823 C 890.633 652.812 894.313 650.063 898.166 647.353 C 903.407 651.448 908.372 655.399 913.499 659.632 C 915.632 662.513 917.608 665.104 919.756 667.965 C 923.379 672.934 926.886 677.588 930.246 682.346 C 932.824 685.993 936.074 687.689 940.605 687.013 C 949.874 685.624 954.958 691.275 959.344 698.278 C 960.565 700.224 962.342 702.068 964.292 703.254 C 969.433 706.39 974.766 709.215 980.102 712.015 C 987.643 715.974 994.096 722.315 1003.391 722.517 C 1006.665 722.589 1009.937 723.295 1013.2 723.792 C 1017.061 724.378 1020.911 725.05 1024.575 725.651 C 1024.097 720.716 1023.433 716.533 1023.345 712.337 C 1023.129 702.605 1021.598 693.125 1014.909 685.756 C 1003.68 673.391 991.893 661.531 980.204 649.178 C 980.362 647.445 980.658 645.991 981.185 644.826 C 985.22 645.24 989.055 645.646 992.845 645.43 C 1005.433 644.715 1017.495 642.207 1028.538 635.514 C 1039.792 628.69 1046.503 615.536 1044.191 602.726 C 1043.578 599.339 1043.381 595.257 1038.994 593.48 C 1035.287 590.974 1031.68 588.755 1027.896 586.311 C 1026.868 585.391 1026.012 584.702 1025.584 583.953 C 1028.141 583.896 1030.279 583.868 1032.416 583.902 C 1041.009 584.031 1049.16 586.095 1056.043 591.268 C 1060.686 594.76 1065.176 598.799 1068.684 603.404 C 1073.929 610.289 1079.197 617.45 1082.749 625.274 C 1088.646 638.263 1093.31 651.825 1098.267 665.231 C 1106.732 688.101 1115.036 711.027 1123.378 733.941 C 1128.379 747.655 1133.246 761.418 1138.366 775.083 C 1139.273 777.499 1141.119 779.563 1142.528 781.789 M 810.732 1066.52 C 810.813 1066.722 810.894 1066.929 810.972 1067.132 C 811.013 1067.032 811.115 1066.888 811.08 1066.833 C 810.936 1066.608 810.751 1066.412 810.485 1065.366 C 810.158 1061.042 809.829 1056.712 809.538 1051.635 C 808.992 1047.888 808.159 1044.158 807.941 1040.398 C 807.134 1026.308 806.527 1012.203 805.964 997.251 C 805.964 966.155 805.964 935.058 805.964 903.961 C 804.724 911.08 804.264 918.224 803.925 925.368 C 802.753 949.675 801.237 973.985 804.507 999.092 C 805.656 1017.151 806.81 1035.209 807.86 1054.083 C 808.014 1055.722 807.976 1057.409 808.365 1058.991 C 808.965 1061.421 809.857 1063.777 810.732 1066.52 M 819.607 720.47 C 819.367 720.475 819.129 720.48 818.886 720.488 C 819.016 720.8 819.14 721.111 819.47 722.137 C 822.469 728.585 819.328 734.938 818.961 742.083 C 815.991 764.572 812.856 787.047 812.046 809.768 C 812.789 809.007 813.066 808.178 813.164 807.332 C 814.703 793.976 816.248 780.615 817.743 767.254 C 818.708 758.611 819.59 749.96 820.789 740.619 C 821.392 736.164 822.356 731.713 822.436 727.247 C 822.473 725.138 820.806 723.001 819.607 720.47 M 1059.156 615.233 C 1058.933 615.257 1058.718 615.281 1058.494 615.304 C 1058.639 615.625 1058.785 615.943 1059.106 616.865 C 1063.525 622.977 1067.95 629.095 1072.37 635.21 C 1072.766 634.938 1073.164 634.664 1073.557 634.393 C 1069.012 628.027 1065.861 620.726 1059.156 615.233 M 808.136 847.718 C 807.389 860.212 806.642 872.707 805.894 885.2 C 806.367 885.222 806.842 885.243 807.315 885.264 C 808.058 872.551 808.799 859.837 809.662 846.338 C 810.618 835.278 811.578 824.218 812.531 813.157 C 811.998 813.123 811.465 813.085 810.932 813.049 C 810.136 824.39 809.338 835.736 808.136 847.718 M 902.75 752.492 C 897.135 731.624 891.526 710.755 885.908 689.888 C 888.797 711.598 894.005 732.702 901.556 753.895 C 905.586 764.444 909.616 774.992 913.644 785.54 C 914.039 785.383 914.435 785.23 914.827 785.075 C 910.876 774.461 906.927 763.845 902.75 752.492 M 1027.303 785.476 C 1029.125 788.958 1030.941 792.443 1032.765 795.925 C 1033.242 795.707 1033.715 795.493 1034.192 795.274 C 1036.827 777.946 1032.423 761.222 1029.978 744.326 C 1025.556 757.645 1022.992 771.008 1027.303 785.476 M 985.568 747.103 C 981.954 751.077 978.34 755.049 974.729 759.02 C 975.123 759.479 975.517 759.943 975.914 760.4 C 987.26 746.293 1003.427 738.864 1017.763 728.876 C 1004.712 730.466 995.593 738.931 985.568 747.103 M 1073.638 651.354 C 1075.423 647.432 1073.71 644.86 1070.229 643.34 C 1067.565 642.173 1063.341 644.488 1062.586 647.324 C 1061.669 650.771 1063.497 653.369 1066.443 653.926 C 1068.516 654.317 1070.975 652.658 1073.638 651.354 M 1055.317 631.188 C 1058.217 628.871 1059.515 625.875 1056.597 623.127 C 1055.121 621.734 1051.93 620.967 1050.012 621.556 C 1047.556 622.311 1045.3 624.685 1046.797 627.991 C 1048.353 631.417 1050.781 633.327 1055.317 631.188 M 798.568 671.925 C 800.188 673.961 801.791 676.007 803.43 678.026 C 807.76 683.365 814.239 688.122 807.627 696.371 C 813.214 691.484 813.773 687.88 809.725 682.79 C 803.252 674.651 796.55 666.695 789.894 658.705 C 789.314 658.001 788.372 657.603 787.603 657.062 C 787.396 657.284 787.192 657.502 786.993 657.719 C 790.714 662.281 794.44 666.847 798.568 671.925 M 967.871 770.67 C 967.506 770.928 967.023 771.112 966.785 771.464 C 958.252 784.061 952.468 797.995 947.305 812.222 C 947.277 812.289 947.646 812.503 947.5 812.39 C 954.394 798.698 961.309 784.97 967.871 770.67 M 1051.443 730.25 C 1053.703 730.636 1055.96 731.024 1058.212 731.413 C 1046.252 728.618 1037.871 720.826 1030.115 712.027 C 1034.487 721.001 1041.683 726.613 1051.443 730.25 M 927.245 706.96 C 926.689 707.881 926.125 708.798 925.565 709.721 C 925.835 710.046 926.101 710.37 926.366 710.696 C 932.704 702.583 940.455 697.102 950.969 696.422 C 948.445 695.77 946.041 695.418 943.767 695.835 C 936.959 697.081 931.989 701.339 927.245 706.96 M 969.707 730.206 C 974.606 728.678 979.506 727.152 984.404 725.626 C 984.207 725.03 984.013 724.438 983.819 723.842 C 978.188 725.641 972.559 727.445 966.93 729.248 C 967.02 729.573 967.109 729.902 967.201 730.228 C 967.8 730.259 968.404 730.285 969.707 730.206 M 807.72 697.609 C 807.243 697.722 806.761 697.838 806.283 697.949 C 806.367 698.307 806.452 698.667 806.537 699.027 C 806.869 698.77 807.2 698.519 807.72 697.609 M 804.747 700.76 C 805.084 700.79 805.43 700.872 805.751 700.816 C 805.821 700.802 805.806 700.306 805.832 700.031 C 805.502 700.109 805.164 700.187 804.747 700.76 M 969.575 769.424 C 969.435 769.121 969.291 768.818 969.151 768.515 C 968.904 768.792 968.655 769.063 968.409 769.336 C 968.672 769.495 968.934 769.653 969.575 769.424 M 1057.667 614.181 C 1057.744 614.094 1057.888 614.009 1057.889 613.921 C 1057.892 613.833 1057.754 613.743 1057.681 613.654 C 1057.599 613.739 1057.515 613.822 1057.667 614.181 M 1029.317 710.281 C 1029.24 710.352 1029.114 710.413 1029.106 710.491 C 1029.097 710.57 1029.2 710.663 1029.252 710.754 C 1029.329 710.683 1029.403 710.611 1029.317 710.281 M 817.298 719.634 C 817.47 719.657 817.648 719.68 817.82 719.706 C 817.743 719.618 817.665 719.535 817.298 719.634 M 974.261 761.119 C 974.261 761.119 974.28 761.075 974.261 761.119 Z" style="" transform="matrix(1, 0, 0, 0.9999999999999998, 1.4210854715202004e-14, 0)"/>
  <path fill="#8B86ED" opacity="1.000000" stroke="none" d="M 237.501 736.187 C 238.117 733.506 239.354 731.207 239.235 728.981 C 238.416 713.393 244.001 699.278 249.04 685.068 C 250.634 680.573 252.919 676.261 255.368 672.157 C 258.953 666.143 264.588 662.685 271.343 661.323 C 272.611 661.066 274.18 662.334 275.779 663.361 C 275.948 663.83 275.573 663.944 275.224 663.806 C 273.98 664.746 273.09 665.822 271.956 667.157 C 270.44 679.528 278.075 686.689 286.69 692.46 C 302.539 703.075 320.468 702.762 338.494 700.535 C 341.396 700.176 343.466 698.49 344.24 695.364 C 344.835 696.624 345.176 697.878 345.515 699.135 C 340.161 714.879 334.333 730.489 329.745 746.457 C 328.397 751.156 330.334 756.903 331.161 762.108 C 332.491 770.447 334.132 778.74 335.715 787.038 C 335.897 788.028 336.567 788.925 336.749 789.308 C 344.194 786.761 351.316 784.009 358.623 781.93 C 363.501 780.54 368.63 779.535 373.675 779.398 C 378.191 779.278 380.9 776.638 383.76 774.146 C 397.155 762.473 410.405 750.637 423.724 738.877 C 430.552 732.857 437.803 727.257 444.126 720.745 C 448.259 716.488 451.229 711.036 454.437 705.947 C 458.145 700.071 463 696.171 469.24 692.745 C 482.188 685.642 496.018 681.943 510.18 679.063 C 519.883 677.088 529.703 675.141 539.553 674.561 C 552.334 673.809 561.721 666.809 571.308 659.741 C 581.786 652.017 592.266 644.288 603.344 636.597 C 604.362 637.697 605.161 638.776 605.13 639.831 C 604.926 647.484 604.671 655.135 604.207 662.771 C 603.625 672.354 602.502 681.909 602.198 691.498 C 601.521 712.712 601.214 733.942 600.7 755.59 C 600.534 771.869 600.423 787.725 600.1 803.921 C 599.9 810.595 599.914 816.931 599.903 823.69 C 599.893 830.853 599.903 837.587 599.836 844.754 C 599.781 882.675 599.809 920.17 599.782 958.088 C 599.672 972.882 599.623 987.252 599.32 1001.878 C 598.684 1004.62 597.96 1007.117 598.002 1009.607 C 598.086 1014.687 598.581 1019.764 598.845 1025.25 C 598.24 1040.695 597.686 1055.732 597.067 1071.193 C 596.412 1083.945 595.827 1096.277 595.176 1108.999 C 594.507 1114.953 593.903 1120.518 593.089 1126.112 C 592.572 1126.274 592.425 1126.505 592.061 1126.892 C 584.551 1127.213 577.414 1127.478 570.029 1127.456 C 535.423 1127.109 501.058 1127.052 466.308 1126.976 C 462.467 1127.457 461.731 1125.906 462.372 1122.724 C 463.11 1119.026 463.598 1115.259 463.919 1111.497 C 464.433 1105.501 464.53 1099.471 465.144 1093.489 C 466.144 1083.723 467.453 1073.992 468.568 1064.236 C 469.464 1056.42 470.305 1048.602 471.107 1040.773 C 471.834 1033.679 473.268 1026.544 472.935 1019.497 C 472.556 1011.56 470.37 1003.725 469.287 995.804 C 467.379 981.868 465.759 967.892 463.926 953.945 C 462.631 944.065 461.004 934.221 459.857 924.324 C 458.698 914.274 457.893 904.181 457.048 894.094 C 456.67 889.6 456.583 885.086 456.338 880.136 C 449.766 882.269 443.581 884.494 437.269 886.282 C 420.303 891.089 403.482 896.73 386.235 900.127 C 367.317 903.85 348.019 905.694 328.825 907.835 C 320.243 908.792 311.522 908.651 302.861 908.677 C 295.884 908.696 288.895 907.805 281.932 908.039 C 269.022 908.474 256.843 907.947 247.089 897.328 C 242.147 891.944 239.477 886.065 239.428 879.193 C 239.211 847.975 239.314 816.754 239.348 785.095 C 239.371 778.998 239.422 773.334 239.298 767.671 C 239.157 761.127 238.864 754.581 238.543 747.699 C 238.13 746.57 237.819 745.769 237.501 744.971 C 237.501 742.182 237.501 739.392 237.501 736.187 M 301.784 770.499 C 301.56 770.688 301.372 770.902 300.845 771.382 C 300.63 771.58 300.445 771.807 299.927 772.279 C 299.709 772.463 299.525 772.68 299.002 773.149 C 298.783 773.342 298.607 773.57 297.904 774.145 C 297.756 774.616 297.611 775.084 297.465 775.557 C 298.012 775.237 298.561 774.912 299.52 774.4 C 299.774 774.217 299.948 773.974 300.436 773.478 C 300.695 773.297 300.863 773.051 301.349 772.557 C 301.612 772.38 301.78 772.129 302.266 771.642 C 302.531 771.457 302.696 771.207 303.179 770.72 C 303.444 770.537 303.609 770.29 304.1 769.806 C 304.262 769.552 304.428 769.301 305.014 768.878 C 305.281 768.698 305.441 768.445 305.927 767.961 C 306.083 767.705 306.241 767.448 306.851 766.983 C 306.86 766.758 306.867 766.532 306.874 766.302 C 306.582 766.45 306.287 766.596 305.583 766.929 C 305.313 767.091 305.129 767.32 304.634 767.839 C 304.381 768.018 304.183 768.243 303.646 768.708 C 303.395 768.879 303.218 769.105 302.74 769.629 C 302.508 769.812 302.317 770.027 301.784 770.499 M 281.073 791.955 C 281.338 791.747 281.599 791.539 282.446 791.141 C 286.916 786.774 291.384 782.417 295.852 778.052 C 295.349 777.572 294.84 777.087 294.334 776.6 C 290.029 781.372 285.725 786.139 281.001 791.101 C 280.876 791.376 280.754 791.651 280.363 792.08 C 280.43 792.01 280.5 791.943 281.073 791.955 M 567.737 970.551 C 567.737 970.551 567.814 970.598 567.814 970.598 C 567.814 970.598 567.57 970.494 567.509 969.686 C 566.698 963.577 565.888 957.47 565.078 951.362 C 564.534 951.453 563.994 951.538 563.459 951.627 C 564.303 957.437 565.112 963.252 566.057 969.046 C 566.142 969.587 567.072 969.989 567.737 970.551 M 557.633 920.578 C 559.558 930.485 561.486 940.39 563.413 950.298 C 563.937 950.186 564.464 950.08 564.989 949.972 C 562.965 939.894 560.946 929.819 558.774 918.955 C 557.694 913.436 556.613 907.918 555.558 901.656 C 549.187 874.967 542.958 848.246 536.367 821.612 C 533.744 810.995 530.32 800.578 527.294 789.33 C 524.811 780.37 522.321 771.406 519.838 762.447 C 519.291 762.606 518.742 762.767 518.195 762.928 C 520.943 771.975 523.695 781.02 526.496 790.767 C 532.577 813.907 538.796 837.007 544.686 860.196 C 548.241 874.201 551.278 888.343 554.585 903.212 C 555.612 908.754 556.635 914.298 557.633 920.578 M 567.346 976.177 C 569.457 991.654 572.02 1007.088 573.57 1022.623 C 575.379 1040.747 577.353 1058.97 577.303 1077.142 C 577.259 1093.301 574.55 1109.457 573.002 1125.81 C 576.307 1125.81 580.039 1125.81 583.786 1125.81 C 581.344 1074.51 577.409 1023.64 568.395 973.326 C 567.925 973.371 567.452 973.418 566.985 973.462 C 567.02 974.134 567.057 974.799 567.346 976.177 M 338.248 803.738 C 339.89 821.906 341.531 840.075 343.171 858.245 C 343.546 858.432 343.922 858.621 344.302 858.811 C 345.378 857.563 347.138 856.444 347.396 855.045 C 348.213 850.615 349.6 845.845 348.735 841.628 C 345.627 826.45 341.684 811.441 338.06 796.371 C 337.737 796.424 337.413 796.481 337.091 796.537 C 337.427 798.683 337.762 800.836 338.248 803.738 M 348.982 797.341 C 357.871 801.345 367.265 804.512 375.502 809.585 C 383.706 814.641 390.742 821.609 398.556 827.956 C 398.605 827.087 398.752 826.688 398.618 826.534 C 385.443 811.673 370.472 799.395 350.975 793.871 C 348.353 793.132 345.451 793.389 342.68 793.185 C 342.629 793.645 342.583 794.1 342.533 794.561 C 344.466 795.4 346.402 796.24 348.982 797.341 M 453.379 856.958 C 452.946 865.664 450.113 873.625 445.564 881.828 C 447.894 881.061 449.677 880.327 451.536 879.901 C 455.625 878.963 457.001 876.733 456.651 872.383 C 455.918 863.379 455.864 854.328 455.43 845.297 C 455.192 840.368 454.754 835.451 454.402 830.526 C 454.077 830.542 453.748 830.56 453.422 830.576 C 453.422 839.092 453.422 847.606 453.379 856.958 M 465.482 737.658 C 462.058 757.456 458.639 777.249 455.217 797.042 C 455.798 797.141 456.379 797.236 456.961 797.334 C 460.782 774.957 464.605 752.577 468.425 730.198 C 467.91 730.097 467.391 729.999 466.879 729.903 C 466.469 732.231 466.059 734.563 465.482 737.658 M 266.209 739.635 C 268.437 743.005 271.41 743.175 274.518 741.244 C 277.188 739.591 278.113 737.084 276.446 734.151 C 274.76 731.186 272.139 730.285 269.031 731.56 C 265.665 732.941 264.507 735.466 266.209 739.635 M 270.604 706.984 C 270.328 707.689 269.64 708.567 269.849 709.07 C 270.696 711.124 271.477 714.362 272.919 714.744 C 275.082 715.318 278.274 714.479 280.073 713.036 C 281.167 712.158 281.348 708.179 280.34 707.102 C 278.923 705.592 276.053 705.293 273.734 704.887 C 272.949 704.748 271.945 705.866 270.604 706.984 M 262.304 702.501 C 262.243 701.583 262.177 700.666 262.111 699.75 C 261.653 699.722 261.194 699.698 260.738 699.671 C 258.462 716.477 256.185 733.278 253.909 750.082 C 254.469 750.159 255.033 750.236 255.597 750.314 C 257.818 734.632 260.037 718.948 262.304 702.501 M 528.676 720.457 C 532.888 712.597 537.099 704.739 541.312 696.878 C 540.794 696.601 540.276 696.326 539.762 696.054 C 535.482 704.384 531.137 712.671 527.028 721.081 C 526.508 722.148 527.214 723.82 527.353 725.209 C 527.595 725.191 527.839 725.17 528.079 725.15 C 528.191 723.803 528.302 722.459 528.676 720.457 M 540.08 745.473 C 536.606 747.347 533.135 749.216 529.661 751.081 C 533.616 750.403 537.365 749.073 541.047 747.57 C 541.206 747.507 540.74 745.886 540.08 745.473 M 517.583 760.556 C 517.939 760.553 518.292 760.553 518.646 760.553 C 518.54 760.153 518.435 759.755 518.332 759.35 C 518.052 759.605 517.772 759.858 517.583 760.556 M 310.029 763.021 C 310.029 763.021 309.964 762.884 309.964 762.884 C 309.964 762.884 309.889 763.032 310.029 763.021 M 539.43 743.633 C 539.568 743.647 539.708 743.67 539.844 743.688 C 539.789 743.592 539.729 743.499 539.43 743.633 Z" style="" transform="matrix(1, 0, 0, 0.9999999999999998, 1.4210854715202004e-14, 0)"/>
  <path fill="#3F3D56" opacity="1.000000" stroke="none" d="M 722.583 600.082 C 729.55 601.295 733.541 605.592 735.409 612.275 C 735.98 614.329 737.085 616.226 738.067 618.503 C 737.656 621.559 736.753 624.299 736.677 627.061 C 736.558 631.396 736.992 635.751 736.913 640.348 C 734.252 638.606 733.916 640.544 733.589 642.246 C 731.431 653.428 727.725 664.03 722.22 674.016 C 721.056 676.125 720.484 678.561 719.638 680.849 C 720.055 681.079 720.467 681.314 720.882 681.54 C 721.595 680.936 722.583 680.476 722.982 679.709 C 725.361 675.112 727.942 670.577 729.82 665.77 C 732.525 658.848 734.681 651.709 737.068 644.664 C 738.496 657.242 739.996 669.815 741.312 682.404 C 742.199 690.886 742.657 699.412 743.602 707.883 C 745.247 722.617 747.147 737.313 748.89 752.035 C 749.939 760.92 750.787 769.831 751.91 778.708 C 753.517 791.479 755.244 804.232 757.014 816.982 C 758.596 828.363 760.274 839.735 761.962 851.1 C 763.588 862.022 765.186 872.946 766.961 883.844 C 769.498 899.365 772.099 914.886 774.837 930.379 C 776.49 939.738 778.52 949.027 780.254 958.371 C 783.07 973.533 785.576 988.757 788.591 1003.876 C 792.485 1023.429 796.662 1042.93 800.879 1062.419 C 805.539 1083.966 810.38 1105.474 814.87 1127.503 C 814.181 1128.887 813.765 1129.76 813.345 1130.637 C 797.435 1130.637 781.52 1130.637 765.006 1130.269 C 762.733 1129.843 761.058 1129.725 759.391 1129.725 C 705.701 1129.714 652.023 1129.715 598.34 1129.715 C 597.274 1129.715 596.009 1130.066 595.191 1129.615 C 594.319 1129.137 593.871 1127.891 593.624 1126.957 C 594.651 1126.445 595.861 1125.945 595.857 1125.472 C 595.752 1119.848 595.477 1114.226 595.246 1108.603 C 595.827 1096.277 596.412 1083.945 597.416 1071.102 C 598.15 1069.943 598.722 1069.306 598.738 1068.655 C 599.099 1055.047 599.411 1041.436 599.665 1027.828 C 599.686 1026.838 599.176 1025.838 598.909 1024.841 C 598.581 1019.764 598.086 1014.687 598.002 1009.607 C 597.96 1007.117 598.684 1004.62 599.566 1002.021 C 600.253 1001.404 600.593 1000.887 600.593 1000.371 C 600.62 987.124 600.633 973.88 600.582 960.633 C 600.581 959.64 600.1 958.653 599.838 957.662 C 599.809 920.17 599.781 882.675 600.161 844.671 C 601.045 842.093 601.52 840.025 601.998 837.942 C 604.752 841.325 607.542 844.744 610.332 848.17 C 608.578 841.996 605.963 836.6 603.412 831.173 C 602.183 828.564 601.084 825.903 599.926 823.264 C 599.914 816.931 599.9 810.595 600.347 804.107 C 601.045 803.35 601.499 802.748 601.505 802.143 C 601.541 787.481 601.545 772.815 601.497 758.149 C 601.496 757.154 601.015 756.159 600.759 755.166 C 601.214 733.942 601.521 712.712 602.198 691.498 C 602.502 681.909 603.625 672.354 604.207 662.771 C 604.671 655.135 604.926 647.484 605.13 639.831 C 605.161 638.776 604.362 637.697 603.625 636.458 C 603.902 635.282 605.2 634.061 604.977 633.294 C 602.365 624.341 605.483 617.872 613.153 613.202 C 613.529 612.97 613.826 612.603 614.571 612.275 C 615.278 614.201 615.661 616.14 615.857 618.094 C 616.857 628.174 618.928 637.766 627.727 644.252 C 635.99 650.343 644.144 656.607 652.653 662.342 C 658.204 666.08 664.305 669.003 669.893 672.442 C 666.796 676.942 663.242 681.005 661.344 685.741 C 659.509 690.295 653.194 692.368 655.318 699.047 C 660.58 691.702 665.836 684.356 670.991 677.157 C 674.579 678.502 677.563 679.617 680.55 680.738 C 679.003 677.855 677.287 675.708 675.342 673.79 C 674.575 673.027 673.313 672.763 672.288 671.959 C 673.406 670.617 674.359 669.3 675.637 668.616 C 689.964 660.977 701.227 649.462 712.802 638.498 C 720.062 631.62 725.977 623.565 722.221 611.998 C 721.067 608.445 722.391 604.076 722.583 600.082 M 689.51 685.403 C 688.324 684.373 687.135 683.339 685.949 682.311 C 685.645 682.738 685.35 683.166 685.053 683.593 C 686.546 684.425 688.04 685.257 689.807 686.673 C 693.445 689.473 697.054 692.315 700.759 695.016 C 701.161 695.313 702.698 694.925 702.748 694.663 C 702.902 693.901 702.829 692.547 702.377 692.304 C 698.189 690.059 695.128 685.457 689.51 685.403 M 627.664 679.628 C 622.163 669.834 616.663 660.046 611.055 650.06 C 608.481 656.47 626.997 690.686 635.017 692.434 C 632.671 688.362 630.326 684.291 627.664 679.628 M 682.946 680.884 C 682.901 681.217 682.854 681.551 682.812 681.887 C 683.052 681.889 683.287 681.892 683.525 681.894 C 683.488 681.557 683.456 681.225 682.946 680.884 M 616.424 853.406 C 616.533 853.558 616.649 853.707 616.755 853.856 C 616.731 853.648 616.709 853.436 616.424 853.406 Z" style="" transform="matrix(1, 0, 0, 0.9999999999999998, 1.4210854715202004e-14, 0)"/>
  <path fill="#302E41" opacity="1.000000" stroke="none" d="M 689.127 397.043 C 694.577 397.965 699.599 398.868 704.617 399.808 C 718.682 402.448 732.028 407.224 744.115 414.85 C 750.847 419.098 754.413 425.798 755.724 433.987 C 757.045 442.252 754.961 449.949 753.934 457.921 C 752.647 467.937 752.502 478.098 751.632 488.854 C 749.512 495.023 745.182 497.775 739.938 499.019 C 735.897 499.979 732.475 500.981 732.116 506.035 C 732.027 507.253 730.71 508.386 729.961 509.557 C 729.534 509.494 729.107 509.436 728.68 509.371 C 727.575 505.122 726.243 500.918 725.415 496.615 C 724.287 490.767 723.876 484.762 722.549 478.967 C 720.763 471.176 716.302 465.42 708.26 463.165 C 706.058 462.546 703.795 461.624 701.585 461.68 C 689.095 461.982 676.569 462.029 664.143 463.153 C 651.194 464.323 640.515 470.468 631.889 480.427 C 626.4 486.761 624.332 486.883 616.88 482.991 C 612.649 480.784 608.954 481.877 606.115 485.037 C 603.604 487.83 601.48 491.132 599.867 494.535 C 595.298 504.194 591.105 514.029 586.706 523.769 C 585.289 526.909 583.69 529.974 582.533 532.345 C 580.631 526.047 578.689 519.613 576.745 513.178 C 572.79 505.929 568.998 498.573 564.808 491.468 C 562.845 488.148 559.825 485.472 557.763 482.198 C 553.77 475.865 555.42 469.72 559.764 464.412 C 564.079 459.142 568.894 454.266 573.697 449.422 C 583.485 439.548 591.481 428.494 596.473 415.424 C 600.042 406.082 608.148 404.028 616.626 402.583 C 625.855 401.007 635.103 399.49 644.365 398.107 C 647.054 397.709 649.824 397.87 652.723 397.41 C 664.821 397.043 676.758 397.043 689.127 397.043 Z" style="" transform="matrix(1, 0, 0, 0.9999999999999998, 1.4210854715202004e-14, 0)"/>
  <path fill="#FEB7B7" opacity="1.000000" stroke="none" d="M 873.95 644.838 C 882.407 635.689 890.789 626.892 899.03 617.961 C 904.168 612.394 909.178 606.704 914.077 600.923 C 917.997 596.309 922.857 593.789 928.805 593.075 C 943.745 591.274 958.665 589.262 973.625 587.594 C 984.046 586.435 994.517 585.72 1005.56 585.12 C 1009.352 585.967 1012.542 586.495 1016.479 587.15 C 1015.91 594.981 1016.125 602.84 1014.627 610.346 C 1011.671 625.152 1003.381 636.01 988.721 641.24 C 986.077 642.183 983.543 643.431 980.962 644.536 C 980.658 645.991 980.362 647.445 980.178 649.554 C 980.19 657.536 979.678 658.238 972.654 660.453 C 969.773 661.364 966.927 662.503 963.976 663.009 C 961.905 663.362 959.416 663.422 957.583 662.58 C 952.557 660.27 947.784 657.403 942.888 654.803 C 942.427 654.558 941.688 654.41 941.257 654.603 C 938.127 656.02 933.772 656.726 932.212 659.189 C 929.055 664.177 924.747 666.299 919.585 667.691 C 917.608 665.104 915.632 662.513 913.779 659.39 C 914.003 658.26 914.147 657.667 914.199 657.064 C 914.928 648.888 915.393 640.647 922.036 634.471 C 922.604 633.942 922.431 631.801 921.819 631.029 C 921.236 630.285 919.288 629.748 918.539 630.174 C 914.735 632.352 910.869 634.56 907.525 637.359 C 904.023 640.287 901.084 643.894 897.897 647.206 C 894.313 650.063 890.633 652.812 887.19 655.823 C 885.62 657.192 884.505 659.087 882.81 661.14 C 881.734 662.329 881.032 663.114 880.33 663.902 C 875.913 666.123 871.481 668.316 867.08 670.573 C 863.663 672.328 860.791 670.999 859.457 668.071 C 858.592 666.173 858.655 662.754 859.842 661.205 C 864.147 655.577 869.105 650.45 873.95 644.838 Z" style="" transform="matrix(1, 0, 0, 0.9999999999999998, 1.4210854715202004e-14, 0)"/>
  <path fill="#403E58" opacity="1.000000" stroke="none" d="M 981.185 644.826 C 983.543 643.431 986.077 642.183 988.721 641.24 C 1003.381 636.01 1011.671 625.152 1014.627 610.346 C 1016.125 602.84 1015.91 594.981 1016.479 587.15 C 1012.542 586.495 1009.352 585.967 1005.958 585.109 C 1012.352 578.727 1015.421 578.577 1021.932 583.799 C 1022.505 584.259 1023.645 584.014 1024.84 584.05 C 1026.012 584.702 1026.868 585.391 1027.693 586.482 C 1031.473 589.175 1035.285 591.472 1039.099 593.768 C 1043.381 595.257 1043.578 599.339 1044.191 602.726 C 1046.503 615.536 1039.792 628.69 1028.538 635.514 C 1017.495 642.207 1005.433 644.715 992.845 645.43 C 989.055 645.646 985.22 645.24 981.185 644.826 Z" style="" transform="matrix(1, 0, 0, 0.9999999999999998, 1.4210854715202004e-14, 0)"/>
  <path fill="#2D2A46" opacity="1.000000" stroke="none" d="M 1027.198 785.122 C 1022.992 771.008 1025.556 757.645 1029.978 744.326 C 1032.423 761.222 1036.827 777.946 1034.192 795.274 C 1033.715 795.493 1033.242 795.707 1032.765 795.925 C 1030.941 792.443 1029.125 788.958 1027.198 785.122 Z" style="" transform="matrix(1, 0, 0, 0.9999999999999998, 1.4210854715202004e-14, 0)"/>
  <path fill="#383458" opacity="1.000000" stroke="none" d="M 804.5 998.253 C 801.237 973.985 802.753 949.675 803.925 925.368 C 804.264 918.224 804.724 911.08 805.964 903.961 C 805.964 935.058 805.964 966.155 805.566 997.709 C 804.949 998.197 804.724 998.225 804.5 998.253 Z" style="" transform="matrix(1, 0, 0, 0.9999999999999998, 1.4210854715202004e-14, 0)"/>
  <path fill="#312E4D" opacity="1.000000" stroke="none" d="M 985.817 746.886 C 995.593 738.931 1004.712 730.466 1017.763 728.876 C 1003.427 738.864 987.26 746.293 975.914 760.4 C 975.517 759.943 975.123 759.479 974.729 759.02 C 978.34 755.049 981.954 751.077 985.817 746.886 Z" style="" transform="matrix(1, 0, 0, 0.9999999999999998, 1.4210854715202004e-14, 0)"/>
  <path fill="#312E47" opacity="1.000000" stroke="none" d="M 737.14 644.294 C 734.681 651.709 732.525 658.848 729.82 665.77 C 727.942 670.577 725.361 675.112 722.982 679.709 C 722.583 680.476 721.595 680.936 720.882 681.54 C 720.467 681.314 720.055 681.079 719.638 680.849 C 720.484 678.561 721.056 676.125 722.22 674.016 C 727.725 664.03 731.431 653.428 733.589 642.246 C 733.916 640.544 734.252 638.606 736.841 640.767 C 737.105 641.938 737.154 642.93 737.14 644.294 Z" style="" transform="matrix(1, 0, 0, 0.9999999999999998, 1.4210854715202004e-14, 0)"/>
  <path fill="#373357" opacity="1.000000" stroke="none" d="M 901.522 753.218 C 894.005 732.702 888.797 711.598 885.908 689.888 C 891.526 710.755 897.135 731.624 902.497 752.854 C 902.006 753.218 901.763 753.218 901.522 753.218 Z" style="" transform="matrix(1, 0, 0, 0.9999999999999998, 1.4210854715202004e-14, 0)"/>
  <path fill="#2D2A46" opacity="1.000000" stroke="none" d="M 920.266 839.535 C 920.266 833.036 920.266 826.532 920.266 820.029 C 920.699 819.869 921.131 819.707 921.564 819.548 C 924.59 828.978 928.941 837.359 937.866 842.218 C 931.842 841.501 926.053 840.521 920.266 839.535 Z" style="" transform="matrix(1, 0, 0, 0.9999999999999998, 1.4210854715202004e-14, 0)"/>
  <path fill="#3A375D" opacity="1.000000" stroke="none" d="M 820.508 741.313 C 819.59 749.96 818.708 758.611 817.743 767.254 C 816.248 780.615 814.703 793.976 813.164 807.332 C 813.066 808.178 812.789 809.007 812.046 809.768 C 812.856 787.047 815.991 764.572 819.288 741.711 C 819.911 741.319 820.211 741.313 820.508 741.313 Z" style="" transform="matrix(1, 0, 0, 0.9999999999999998, 1.4210854715202004e-14, 0)"/>
  <path fill="#2F2C49" opacity="1.000000" stroke="none" d="M 1073.451 651.634 C 1070.975 652.658 1068.516 654.317 1066.443 653.926 C 1063.497 653.369 1061.669 650.771 1062.586 647.324 C 1063.341 644.488 1067.565 642.173 1070.229 643.34 C 1073.71 644.86 1075.423 647.432 1073.451 651.634 Z" style="" transform="matrix(1, 0, 0, 0.9999999999999998, 1.4210854715202004e-14, 0)"/>
  <path fill="#2E2B47" opacity="1.000000" stroke="none" d="M 1055.033 631.368 C 1050.781 633.327 1048.353 631.417 1046.797 627.991 C 1045.3 624.685 1047.556 622.311 1050.012 621.556 C 1051.93 620.967 1055.121 621.734 1056.597 623.127 C 1059.515 625.875 1058.217 628.871 1055.033 631.368 Z" style="" transform="matrix(1, 0, 0, 0.9999999999999998, 1.4210854715202004e-14, 0)"/>
  <path fill="#332F4F" opacity="1.000000" stroke="none" d="M 919.735 869.631 C 920.046 870.277 920.583 871.353 920.583 872.429 C 920.611 909.387 920.581 946.348 920.524 983.729 C 920.225 982.082 919.746 980.021 919.745 977.959 C 919.698 941.991 919.71 906.028 919.735 869.631 Z" style="" transform="matrix(1, 0, 0, 0.9999999999999998, 1.4210854715202004e-14, 0)"/>
  <path fill="#3B385F" opacity="1.000000" stroke="none" d="M 798.367 671.669 C 794.44 666.847 790.714 662.281 786.993 657.719 C 787.192 657.502 787.396 657.284 787.603 657.062 C 788.372 657.603 789.314 658.001 789.894 658.705 C 796.55 666.695 803.252 674.651 809.725 682.79 C 813.773 687.88 813.214 691.484 807.627 696.371 C 814.239 688.122 807.76 683.365 803.43 678.026 C 801.791 676.007 800.188 673.961 798.367 671.669 Z" style="" transform="matrix(1, 0, 0, 0.9999999999999998, 1.4210854715202004e-14, 0)"/>
  <path fill="#403C67" opacity="1.000000" stroke="none" d="M 968.044 770.958 C 961.309 784.97 954.394 798.698 947.5 812.39 C 947.646 812.503 947.277 812.289 947.305 812.222 C 952.468 797.995 958.252 784.061 966.785 771.464 C 967.023 771.112 967.506 770.928 968.044 770.958 Z" style="" transform="matrix(1, 0, 0, 0.9999999999999998, 1.4210854715202004e-14, 0)"/>
  <path fill="#332F4F" opacity="1.000000" stroke="none" d="M 804.504 998.674 C 804.724 998.225 804.949 998.197 805.509 998.139 C 806.527 1012.203 807.134 1026.308 807.941 1040.398 C 808.159 1044.158 808.992 1047.888 809.323 1052.124 C 808.729 1052.832 808.345 1053.049 807.961 1053.27 C 806.81 1035.209 805.656 1017.151 804.504 998.674 Z" style="" transform="matrix(1, 0, 0, 0.9999999999999998, 1.4210854715202004e-14, 0)"/>
  <path fill="#3B385F" opacity="1.000000" stroke="none" d="M 1051.09 730.155 C 1041.683 726.613 1034.487 721.001 1030.115 712.027 C 1037.871 720.826 1046.252 728.618 1058.212 731.413 C 1055.96 731.024 1053.703 730.636 1051.09 730.155 Z" style="" transform="matrix(1, 0, 0, 0.9999999999999998, 1.4210854715202004e-14, 0)"/>
  <path fill="#383458" opacity="1.000000" stroke="none" d="M 927.437 706.702 C 931.989 701.339 936.959 697.081 943.767 695.835 C 946.041 695.418 948.445 695.77 950.969 696.422 C 940.455 697.102 932.704 702.583 926.366 710.696 C 926.101 710.37 925.835 710.046 925.565 709.721 C 926.125 708.798 926.689 707.881 927.437 706.702 Z" style="" transform="matrix(1, 0, 0, 0.9999999999999998, 1.4210854715202004e-14, 0)"/>
  <path fill="#4D497E" opacity="1.000000" stroke="none" d="M 809.546 847.122 C 808.799 859.837 808.058 872.551 807.315 885.264 C 806.842 885.243 806.367 885.222 805.894 885.2 C 806.642 872.707 807.389 860.212 808.59 847.414 C 809.209 847.114 809.377 847.117 809.546 847.122 Z" style="" transform="matrix(1, 0, 0, 0.9999999999999998, 1.4210854715202004e-14, 0)"/>
  <path fill="#464271" opacity="1.000000" stroke="none" d="M 901.536 753.557 C 901.763 753.218 902.006 753.218 902.609 753.225 C 906.927 763.845 910.876 774.461 914.827 785.075 C 914.435 785.23 914.039 785.383 913.644 785.54 C 909.616 774.992 905.586 764.444 901.536 753.557 Z" style="" transform="matrix(1, 0, 0, 0.9999999999999998, 1.4210854715202004e-14, 0)"/>
  <path fill="#464271" opacity="1.000000" stroke="none" d="M 809.604 846.729 C 809.377 847.117 809.209 847.114 808.79 847.094 C 809.338 835.736 810.136 824.39 810.932 813.049 C 811.465 813.085 811.998 813.123 812.531 813.157 C 811.578 824.218 810.618 835.278 809.604 846.729 Z" style="" transform="matrix(1, 0, 0, 0.9999999999999998, 1.4210854715202004e-14, 0)"/>
  <path fill="#514D85" opacity="1.000000" stroke="none" d="M 920.139 839.967 C 926.053 840.521 931.842 841.501 938.06 842.478 C 940.054 843.15 941.611 843.826 943.229 844.777 C 935.875 843.96 928.466 842.865 920.883 841.746 C 920.724 844.295 920.583 846.521 920.09 848.92 C 919.828 846.188 919.922 843.291 920.139 839.967 Z" style="" transform="matrix(1, 0, 0, 0.9999999999999998, 1.4210854715202004e-14, 0)"/>
  <path fill="#39355A" opacity="1.000000" stroke="none" d="M 1059.505 615.583 C 1065.861 620.726 1069.012 628.027 1073.557 634.393 C 1073.164 634.664 1072.766 634.938 1072.37 635.21 C 1067.95 629.095 1063.525 622.977 1059.172 616.403 C 1059.24 615.94 1059.505 615.583 1059.505 615.583 Z" style="" transform="matrix(1, 0, 0, 0.9999999999999998, 1.4210854715202004e-14, 0)"/>
  <path fill="#44406F" opacity="1.000000" stroke="none" d="M 820.65 740.966 C 820.211 741.313 819.911 741.319 819.393 741.332 C 819.328 734.938 822.469 728.585 819.537 721.656 C 819.61 721.174 819.913 720.872 819.913 720.872 C 820.806 723.001 822.473 725.138 822.436 727.247 C 822.356 731.713 821.392 736.164 820.65 740.966 Z" style="" transform="matrix(1, 0, 0, 0.9999999999999998, 1.4210854715202004e-14, 0)"/>
  <path fill="#39355A" opacity="1.000000" stroke="none" d="M 969.359 730.259 C 968.404 730.285 967.8 730.259 967.201 730.228 C 967.109 729.902 967.02 729.573 966.93 729.248 C 972.559 727.445 978.188 725.641 983.819 723.842 C 984.013 724.438 984.207 725.03 984.404 725.626 C 979.506 727.152 974.606 728.678 969.359 730.259 Z" style="" transform="matrix(1, 0, 0, 0.9999999999999998, 1.4210854715202004e-14, 0)"/>
  <path fill="#2F2C49" opacity="1.000000" stroke="none" d="M 1038.994 593.48 C 1035.285 591.472 1031.473 589.175 1027.868 586.707 C 1031.68 588.755 1035.287 590.974 1038.994 593.48 Z" style="" transform="matrix(1, 0, 0, 0.9999999999999998, 1.4210854715202004e-14, 0)"/>
  <path fill="#5D589B" opacity="1.000000" stroke="none" d="M 807.39 641.355 C 817.327 641.146 827.551 641.149 837.977 641.504 C 828.013 641.76 817.848 641.664 807.39 641.355 Z" style="" transform="matrix(1, 0, 0, 0.9999999999999998, 1.4210854715202004e-14, 0)"/>
  <path fill="#44406F" opacity="1.000000" stroke="none" d="M 807.91 1053.676 C 808.345 1053.049 808.729 1052.832 809.306 1052.502 C 809.829 1056.712 810.158 1061.042 810.544 1065.78 C 810.606 1066.191 810.624 1066.164 810.624 1066.164 C 809.857 1063.777 808.965 1061.421 808.365 1058.991 C 807.976 1057.409 808.014 1055.722 807.91 1053.676 Z" style="" transform="matrix(1, 0, 0, 0.9999999999999998, 1.4210854715202004e-14, 0)"/>
  <path fill="#5A5591" opacity="1.000000" stroke="none" d="M 880.622 664.104 C 881.032 663.114 881.734 662.329 882.668 661.426 C 883.422 666.668 883.937 672.018 884.455 677.37 C 884.209 677.417 883.959 677.466 883.711 677.51 C 882.778 673.109 881.845 668.704 880.622 664.104 Z" style="" transform="matrix(1, 0, 0, 0.9999999999999998, 1.4210854715202004e-14, 0)"/>
  <path fill="#3B385F" opacity="1.000000" stroke="none" d="M 807.626 697.936 C 807.2 698.519 806.869 698.77 806.537 699.027 C 806.452 698.667 806.367 698.307 806.283 697.949 C 806.761 697.838 807.243 697.722 807.626 697.936 Z" style="" transform="matrix(1, 0, 0, 0.9999999999999998, 1.4210854715202004e-14, 0)"/>
  <path fill="#3B385F" opacity="1.000000" stroke="none" d="M 804.791 700.513 C 805.164 700.187 805.502 700.109 805.832 700.031 C 805.806 700.306 805.821 700.802 805.751 700.816 C 805.43 700.872 805.084 700.79 804.791 700.513 Z" style="" transform="matrix(1, 0, 0, 0.9999999999999998, 1.4210854715202004e-14, 0)"/>
  <path fill="#403C67" opacity="1.000000" stroke="none" d="M 969.386 769.617 C 968.934 769.653 968.672 769.495 968.409 769.336 C 968.655 769.063 968.904 768.792 969.151 768.515 C 969.291 768.818 969.435 769.121 969.386 769.617 Z" style="" transform="matrix(1, 0, 0, 0.9999999999999998, 1.4210854715202004e-14, 0)"/>
  <path fill="#44406F" opacity="1.000000" stroke="none" d="M 810.597 1066.197 C 810.751 1066.412 810.936 1066.608 811.08 1066.833 C 811.115 1066.888 811.013 1067.032 810.972 1067.132 C 810.894 1066.929 810.813 1066.722 810.682 1066.34 C 810.624 1066.164 810.606 1066.191 810.597 1066.197 Z" style="" transform="matrix(1, 0, 0, 0.9999999999999998, 1.4210854715202004e-14, 0)"/>
  <path fill="#39355A" opacity="1.000000" stroke="none" d="M 1057.549 614.044 C 1057.515 613.822 1057.599 613.739 1057.681 613.654 C 1057.754 613.743 1057.892 613.833 1057.889 613.921 C 1057.888 614.009 1057.744 614.094 1057.549 614.044 Z" style="" transform="matrix(1, 0, 0, 0.9999999999999998, 1.4210854715202004e-14, 0)"/>
  <path fill="#39355A" opacity="1.000000" stroke="none" d="M 1059.085 616.099 C 1058.785 615.943 1058.639 615.625 1058.494 615.304 C 1058.718 615.281 1058.933 615.257 1059.334 615.405 C 1059.505 615.583 1059.24 615.94 1059.085 616.099 Z" style="" transform="matrix(1, 0, 0, 0.9999999999999998, 1.4210854715202004e-14, 0)"/>
  <path fill="#3B385F" opacity="1.000000" stroke="none" d="M 1029.396 710.413 C 1029.403 710.611 1029.329 710.683 1029.252 710.754 C 1029.2 710.663 1029.097 710.57 1029.106 710.491 C 1029.114 710.413 1029.24 710.352 1029.396 710.413 Z" style="" transform="matrix(1, 0, 0, 0.9999999999999998, 1.4210854715202004e-14, 0)"/>
  <path fill="#44406F" opacity="1.000000" stroke="none" d="M 817.443 719.54 C 817.665 719.535 817.743 719.618 817.82 719.706 C 817.648 719.68 817.47 719.657 817.443 719.54 Z" style="" transform="matrix(1, 0, 0, 0.9999999999999998, 1.4210854715202004e-14, 0)"/>
  <path fill="#44406F" opacity="1.000000" stroke="none" d="M 819.439 721.299 C 819.14 721.111 819.016 720.8 818.886 720.488 C 819.129 720.48 819.367 720.475 819.762 720.671 C 819.913 720.872 819.61 721.174 819.439 721.299 Z" style="" transform="matrix(1, 0, 0, 0.9999999999999998, 1.4210854715202004e-14, 0)"/>
  <path fill="#312E4D" opacity="1.000000" stroke="none" d="M 974.274 761.097 C 974.28 761.075 974.261 761.119 974.274 761.097 Z" style="" transform="matrix(1, 0, 0, 0.9999999999999998, 1.4210854715202004e-14, 0)"/>
  <path fill="#FFB8B8" opacity="1.000000" stroke="none" d="M 576.749 513.571 C 578.689 519.613 580.631 526.047 582.533 532.345 C 583.69 529.974 585.289 526.909 586.706 523.769 C 591.105 514.029 595.298 504.194 599.867 494.535 C 601.48 491.132 603.604 487.83 606.115 485.037 C 608.954 481.877 612.649 480.784 616.88 482.991 C 624.332 486.883 626.4 486.761 631.889 480.427 C 640.515 470.468 651.194 464.323 664.143 463.153 C 676.569 462.029 689.095 461.982 701.585 461.68 C 703.795 461.624 706.058 462.546 708.26 463.165 C 716.302 465.42 720.763 471.176 722.549 478.967 C 723.876 484.762 724.287 490.767 725.415 496.615 C 726.243 500.918 727.575 505.122 728.68 509.371 C 729.107 509.436 729.534 509.494 729.961 509.557 C 730.71 508.386 732.027 507.253 732.116 506.035 C 732.475 500.981 735.897 499.979 739.938 499.019 C 745.182 497.775 749.512 495.023 751.614 489.283 C 757.485 501.966 759.907 515.382 759.379 529.553 C 758.802 545.042 754.409 559.178 746.3 572.176 C 740.636 581.26 733.599 589.2 725.099 595.795 C 724.004 596.641 723.48 598.226 722.636 599.777 C 722.391 604.076 721.067 608.445 722.221 611.998 C 725.977 623.565 720.062 631.62 712.802 638.498 C 701.227 649.462 689.964 660.977 675.637 668.616 C 674.359 669.3 673.406 670.617 672.226 672.282 C 671.835 673.582 671.52 674.248 670.836 675.706 C 670.487 673.952 670.324 673.124 670.158 672.295 C 664.305 669.003 658.204 666.08 652.653 662.342 C 644.144 656.607 635.99 650.343 627.727 644.252 C 618.928 637.766 616.857 628.174 615.857 618.094 C 615.661 616.14 615.278 614.201 614.752 612.031 C 614.072 608.82 614.052 605.674 613.035 602.897 C 612.134 600.421 610.565 597.804 608.552 596.183 C 591.094 582.168 580.721 563.833 577.036 542.052 C 575.494 532.936 576.761 523.338 576.749 513.571 Z" style="" transform="matrix(1, 0, 0, 0.9999999999999998, 1.4210854715202004e-14, 0)"/>
  <path fill="#FEB7B7" opacity="1.000000" stroke="none" d="M 345.711 699.383 C 345.176 697.878 344.835 696.624 343.818 695.217 C 335.449 694.973 327.684 695.533 320.441 691.962 C 304.924 684.298 297.319 670.744 292.828 654.834 C 292.195 652.609 292.683 651.17 294.995 650.2 C 297.284 649.24 299.38 647.815 301.56 646.595 C 324.913 641.9 348.438 637.913 371.544 632.207 C 383.079 629.36 391.923 633.308 401.104 638.369 C 418.108 647.746 435.054 657.227 452.012 666.695 C 455.988 668.917 460.106 670.965 463.775 673.626 C 465.867 675.141 468.655 677.817 468.544 679.827 C 468.316 683.862 464.678 685.852 460.714 685.97 C 458.389 686.039 455.89 685.623 453.726 684.767 C 446.915 682.066 440.113 679.29 433.514 676.117 C 422.44 670.796 411.76 664.525 399.24 663.081 C 398.377 662.983 397.474 663.222 395.073 663.451 C 396.781 665.87 397.57 668.122 399.132 668.996 C 404.318 671.909 407.689 675.997 409.651 681.607 C 410.79 684.871 413.002 687.758 414.118 691.023 C 415.667 695.558 414.409 697.848 409.751 698.437 C 406.242 698.881 402.465 699.532 399.314 696.3 C 395.406 692.285 390.16 693.358 385.256 693.567 C 384.745 693.589 384.172 694.101 383.775 694.525 C 380.631 697.878 377.831 701.644 374.302 704.51 C 371.989 706.39 368.716 707.264 365.728 708.055 C 363.731 708.587 361.465 708.014 359.347 708.22 C 354.122 708.733 350.012 707.473 348.021 702.011 C 347.68 701.081 346.624 700.416 345.711 699.383 Z" style="" transform="matrix(1, 0, 0, 0.9999999999999998, 1.4210854715202004e-14, 0)"/>
  <path fill="#403E58" opacity="1.000000" stroke="none" d="M 301.2 646.541 C 299.38 647.815 297.284 649.24 294.995 650.2 C 292.683 651.17 292.195 652.609 292.828 654.834 C 297.319 670.744 304.924 684.298 320.441 691.962 C 327.684 695.533 335.449 694.973 343.562 695.213 C 343.466 698.49 341.396 700.176 338.494 700.535 C 320.468 702.762 302.539 703.075 286.69 692.46 C 278.075 686.689 270.44 679.528 272 667.46 C 272.326 667.64 272.335 667.805 272.413 667.931 C 272.48 668.037 272.624 668.094 272.731 668.179 C 273.678 666.764 274.624 665.353 275.573 663.944 C 275.573 663.944 275.948 663.83 275.947 663.724 C 279.627 658.369 283.706 653.341 286.855 647.779 C 288.865 644.229 291.555 644.418 294.471 644.722 C 296.632 644.947 298.719 645.876 301.2 646.541 Z" style="" transform="matrix(1, 0, 0, 0.9999999999999998, 1.4210854715202004e-14, 0)"/>
  <path fill="#302D4B" opacity="1.000000" stroke="none" d="M 567.221 975.822 C 567.057 974.799 567.02 974.134 566.985 973.462 C 567.452 973.418 567.925 973.371 568.395 973.326 C 577.409 1023.64 581.344 1074.51 583.786 1125.81 C 580.039 1125.81 576.307 1125.81 573.002 1125.81 C 574.55 1109.457 577.259 1093.301 577.303 1077.142 C 577.353 1058.97 575.379 1040.747 573.57 1022.623 C 572.02 1007.088 569.457 991.654 567.221 975.822 Z" style="" transform="matrix(1, 0, 0, 0.9999999999999998, 1.4210854715202004e-14, 0)"/>
  <path fill="#302D4B" opacity="1.000000" stroke="none" d="M 338.174 803.358 C 337.762 800.836 337.427 798.683 337.091 796.537 C 337.413 796.481 337.737 796.424 338.06 796.371 C 341.684 811.441 345.627 826.45 348.735 841.628 C 349.6 845.845 348.213 850.615 347.396 855.045 C 347.138 856.444 345.378 857.563 344.302 858.811 C 343.922 858.621 343.546 858.432 343.171 858.245 C 341.531 840.075 339.89 821.906 338.174 803.358 Z" style="" transform="matrix(1, 0, 0, 0.9999999999999998, 1.4210854715202004e-14, 0)"/>
  <path fill="#322F4E" opacity="1.000000" stroke="none" d="M 348.663 797.207 C 346.402 796.24 344.466 795.4 342.533 794.561 C 342.583 794.1 342.629 793.645 342.68 793.185 C 345.451 793.389 348.353 793.132 350.975 793.871 C 370.472 799.395 385.443 811.673 398.618 826.534 C 398.752 826.688 398.605 827.087 398.556 827.956 C 390.742 821.609 383.706 814.641 375.502 809.585 C 367.265 804.512 357.871 801.345 348.663 797.207 Z" style="" transform="matrix(1, 0, 0, 0.9999999999999998, 1.4210854715202004e-14, 0)"/>
  <path fill="#4A467A" opacity="1.000000" stroke="none" d="M 554.55 902.422 C 551.278 888.343 548.241 874.201 544.686 860.196 C 538.796 837.007 532.577 813.907 526.674 790.419 C 526.851 790.072 527.259 790.072 527.259 790.072 C 530.32 800.578 533.744 810.995 536.367 821.612 C 542.958 848.246 549.187 874.967 555.302 902.031 C 554.879 902.41 554.714 902.417 554.55 902.422 Z" style="" transform="matrix(1, 0, 0, 0.9999999999999998, 1.4210854715202004e-14, 0)"/>
  <path fill="#312E4D" opacity="1.000000" stroke="none" d="M 453.401 856.541 C 453.422 847.606 453.422 839.092 453.422 830.576 C 453.748 830.56 454.077 830.542 454.402 830.526 C 454.754 835.451 455.192 840.368 455.43 845.297 C 455.864 854.328 455.918 863.379 456.651 872.383 C 457.001 876.733 455.625 878.963 451.536 879.901 C 449.677 880.327 447.894 881.061 445.564 881.828 C 450.113 873.625 452.946 865.664 453.401 856.541 Z" style="" transform="matrix(1, 0, 0, 0.9999999999999998, 1.4210854715202004e-14, 0)"/>
  <path fill="#3B385F" opacity="1.000000" stroke="none" d="M 465.567 737.275 C 466.059 734.563 466.469 732.231 466.879 729.903 C 467.391 729.999 467.91 730.097 468.425 730.198 C 464.605 752.577 460.782 774.957 456.961 797.334 C 456.379 797.236 455.798 797.141 455.217 797.042 C 458.639 777.249 462.058 757.456 465.567 737.275 Z" style="" transform="matrix(1, 0, 0, 0.9999999999999998, 1.4210854715202004e-14, 0)"/>
  <path fill="#2E2B47" opacity="1.000000" stroke="none" d="M 266.082 739.307 C 264.507 735.466 265.665 732.941 269.031 731.56 C 272.139 730.285 274.76 731.186 276.446 734.151 C 278.113 737.084 277.188 739.591 274.518 741.244 C 271.41 743.175 268.437 743.005 266.082 739.307 Z" style="" transform="matrix(1, 0, 0, 0.9999999999999998, 1.4210854715202004e-14, 0)"/>
  <path fill="#2E2B47" opacity="1.000000" stroke="none" d="M 270.826 706.695 C 271.945 705.866 272.949 704.748 273.734 704.887 C 276.053 705.293 278.923 705.592 280.34 707.102 C 281.348 708.179 281.167 712.158 280.073 713.036 C 278.274 714.479 275.082 715.318 272.919 714.744 C 271.477 714.362 270.696 711.124 269.849 709.07 C 269.64 708.567 270.328 707.689 270.826 706.695 Z" style="" transform="matrix(1, 0, 0, 0.9999999999999998, 1.4210854715202004e-14, 0)"/>
  <path fill="#39355A" opacity="1.000000" stroke="none" d="M 262.281 702.884 C 260.037 718.948 257.818 734.632 255.597 750.314 C 255.033 750.236 254.469 750.159 253.909 750.082 C 256.185 733.278 258.462 716.477 260.738 699.671 C 261.194 699.698 261.653 699.722 262.111 699.75 C 262.177 700.666 262.243 701.583 262.281 702.884 Z" style="" transform="matrix(1, 0, 0, 0.9999999999999998, 1.4210854715202004e-14, 0)"/>
  <path fill="#2A2740" opacity="1.000000" stroke="none" d="M 599.903 823.69 C 601.084 825.903 602.183 828.564 603.412 831.173 C 605.963 836.6 608.578 841.996 610.332 848.17 C 607.542 844.744 604.752 841.325 601.998 837.942 C 601.52 840.025 601.045 842.093 600.246 844.247 C 599.903 837.587 599.893 830.853 599.903 823.69 Z" style="" transform="matrix(1, 0, 0, 0.9999999999999998, 1.4210854715202004e-14, 0)"/>
  <path fill="#3F3B66" opacity="1.000000" stroke="none" d="M 570.029 1127.456 C 535.867 1127.738 501.458 1127.732 466.873 1127.359 C 501.058 1127.052 535.423 1127.109 570.029 1127.456 Z" style="" transform="matrix(1, 0, 0, 0.9999999999999998, 1.4210854715202004e-14, 0)"/>
  <path fill="#2F2C49" opacity="1.000000" stroke="none" d="M 598.845 1025.25 C 599.176 1025.838 599.686 1026.838 599.665 1027.828 C 599.411 1041.436 599.099 1055.047 598.738 1068.655 C 598.722 1069.306 598.15 1069.943 597.488 1070.677 C 597.686 1055.732 598.24 1040.695 598.845 1025.25 Z" style="" transform="matrix(1, 0, 0, 0.9999999999999998, 1.4210854715202004e-14, 0)"/>
  <path fill="#39355A" opacity="1.000000" stroke="none" d="M 528.544 720.786 C 528.302 722.459 528.191 723.803 528.079 725.15 C 527.839 725.17 527.595 725.191 527.353 725.209 C 527.214 723.82 526.508 722.148 527.028 721.081 C 531.137 712.671 535.482 704.384 539.762 696.054 C 540.276 696.326 540.794 696.601 541.312 696.878 C 537.099 704.739 532.888 712.597 528.544 720.786 Z" style="" transform="matrix(1, 0, 0, 0.9999999999999998, 1.4210854715202004e-14, 0)"/>
  <path fill="#464271" opacity="1.000000" stroke="none" d="M 558.926 919.741 C 560.946 929.819 562.965 939.894 564.989 949.972 C 564.464 950.08 563.937 950.186 563.413 950.298 C 561.486 940.39 559.558 930.485 557.966 920.188 C 558.504 919.776 558.714 919.761 558.926 919.741 Z" style="" transform="matrix(1, 0, 0, 0.9999999999999998, 1.4210854715202004e-14, 0)"/>
  <path fill="#464271" opacity="1.000000" stroke="none" d="M 527.277 789.705 C 527.259 790.072 526.851 790.072 526.645 790.068 C 523.695 781.02 520.943 771.975 518.195 762.928 C 518.742 762.767 519.291 762.606 519.838 762.447 C 522.321 771.406 524.811 780.37 527.277 789.705 Z" style="" transform="matrix(1, 0, 0, 0.9999999999999998, 1.4210854715202004e-14, 0)"/>
  <path fill="#2A2740" opacity="1.000000" stroke="none" d="M 600.7 755.59 C 601.015 756.159 601.496 757.154 601.497 758.149 C 601.545 772.815 601.541 787.481 601.505 802.143 C 601.499 802.748 601.045 803.35 600.56 803.77 C 600.423 787.725 600.534 771.869 600.7 755.59 Z" style="" transform="matrix(1, 0, 0, 0.9999999999999998, 1.4210854715202004e-14, 0)"/>
  <path fill="#2A2740" opacity="1.000000" stroke="none" d="M 599.782 958.088 C 600.1 958.653 600.581 959.64 600.582 960.633 C 600.633 973.88 600.62 987.124 600.593 1000.371 C 600.593 1000.887 600.253 1001.404 599.823 1001.771 C 599.623 987.252 599.672 972.882 599.782 958.088 Z" style="" transform="matrix(1, 0, 0, 0.9999999999999998, 1.4210854715202004e-14, 0)"/>
  <path fill="#383458" opacity="1.000000" stroke="none" d="M 281.421 790.908 C 285.725 786.139 290.029 781.372 294.334 776.6 C 294.84 777.087 295.349 777.572 295.852 778.052 C 291.384 782.417 286.916 786.774 282.044 791.13 C 281.643 791.12 281.421 790.908 281.421 790.908 Z" style="" transform="matrix(1, 0, 0, 0.9999999999999998, 1.4210854715202004e-14, 0)"/>
  <path fill="#403C67" opacity="1.000000" stroke="none" d="M 567.608 970.458 C 567.072 969.989 566.142 969.587 566.057 969.046 C 565.112 963.252 564.303 957.437 563.459 951.627 C 563.994 951.538 564.534 951.453 565.078 951.362 C 565.888 957.47 566.698 963.577 567.555 970.083 C 567.594 970.481 567.608 970.458 567.608 970.458 Z" style="" transform="matrix(1, 0, 0, 0.9999999999999998, 1.4210854715202004e-14, 0)"/>
  <path fill="#44406F" opacity="1.000000" stroke="none" d="M 239.348 785.095 C 238.993 784.618 238.41 783.708 238.41 782.799 C 238.417 771.479 238.504 760.164 238.607 748.443 C 238.864 754.581 239.157 761.127 239.298 767.671 C 239.422 773.334 239.371 778.998 239.348 785.095 Z" style="" transform="matrix(1, 0, 0, 0.9999999999999998, 1.4210854715202004e-14, 0)"/>
  <path fill="#2E2B47" opacity="1.000000" stroke="none" d="M 595.176 1108.999 C 595.477 1114.226 595.752 1119.848 595.857 1125.472 C 595.861 1125.945 594.651 1126.445 593.624 1126.957 C 593.238 1126.981 593.273 1126.967 593.282 1126.756 C 593.292 1126.539 593.297 1126.079 593.297 1126.079 C 593.903 1120.518 594.507 1114.953 595.176 1108.999 Z" style="" transform="matrix(1, 0, 0, 0.9999999999999998, 1.4210854715202004e-14, 0)"/>
  <path fill="#3F3B66" opacity="1.000000" stroke="none" d="M 558.854 919.349 C 558.714 919.761 558.504 919.776 557.975 919.819 C 556.635 914.298 555.612 908.754 554.569 902.818 C 554.714 902.417 554.879 902.41 555.285 902.397 C 556.613 907.918 557.694 913.436 558.854 919.349 Z" style="" transform="matrix(1, 0, 0, 0.9999999999999998, 1.4210854715202004e-14, 0)"/>
  <path fill="#44406F" opacity="1.000000" stroke="none" d="M 540.324 745.234 C 540.74 745.886 541.206 747.507 541.047 747.57 C 537.365 749.073 533.616 750.403 529.661 751.081 C 533.135 749.216 536.606 747.347 540.324 745.234 Z" style="" transform="matrix(1, 0, 0, 0.9999999999999998, 1.4210854715202004e-14, 0)"/>
  <path fill="#FFFFFF" opacity="1.000000" stroke="none" d="M 275.224 663.806 C 274.624 665.353 273.678 666.764 272.731 668.179 C 272.624 668.094 272.48 668.037 272.413 667.931 C 272.335 667.805 272.326 667.64 272.242 667.195 C 273.09 665.822 273.98 664.746 275.224 663.806 Z" style="" transform="matrix(1, 0, 0, 0.9999999999999998, 1.4210854715202004e-14, 0)"/>
  <path fill="#464271" opacity="1.000000" stroke="none" d="M 517.536 760.336 C 517.772 759.858 518.052 759.605 518.332 759.35 C 518.435 759.755 518.54 760.153 518.646 760.553 C 518.292 760.553 517.939 760.553 517.536 760.336 Z" style="" transform="matrix(1, 0, 0, 0.9999999999999998, 1.4210854715202004e-14, 0)"/>
  <path fill="#383458" opacity="1.000000" stroke="none" d="M 299.106 774.589 C 298.561 774.912 298.012 775.237 297.465 775.557 C 297.611 775.084 297.756 774.616 298.333 774.189 C 298.877 774.354 298.992 774.469 299.106 774.589 Z" style="" transform="matrix(1, 0, 0, 0.9999999999999998, 1.4210854715202004e-14, 0)"/>
  <path fill="#383458" opacity="1.000000" stroke="none" d="M 309.958 763.026 C 309.889 763.032 309.964 762.884 309.964 762.884 C 309.964 762.884 310.029 763.021 309.958 763.026 Z" style="" transform="matrix(1, 0, 0, 0.9999999999999998, 1.4210854715202004e-14, 0)"/>
  <path fill="#403C67" opacity="1.000000" stroke="none" d="M 567.58 970.49 C 567.57 970.494 567.814 970.598 567.814 970.598 C 567.814 970.598 567.737 970.551 567.672 970.504 C 567.608 970.458 567.594 970.481 567.58 970.49 Z" style="" transform="matrix(1, 0, 0, 0.9999999999999998, 1.4210854715202004e-14, 0)"/>
  <path fill="#3F3D56" opacity="1.000000" stroke="none" d="M 593.089 1126.112 C 593.297 1126.079 593.292 1126.539 593.271 1126.769 C 593.252 1126.998 592.842 1126.931 592.633 1126.88 C 592.425 1126.505 592.572 1126.274 593.089 1126.112 Z" style="" transform="matrix(1, 0, 0, 0.9999999999999998, 1.4210854715202004e-14, 0)"/>
  <path fill="#383458" opacity="1.000000" stroke="none" d="M 281.754 791.226 C 281.599 791.539 281.338 791.747 280.835 791.929 C 280.593 791.903 280.626 791.924 280.626 791.924 C 280.754 791.651 280.876 791.376 281.211 791.004 C 281.421 790.908 281.643 791.12 281.754 791.226 Z" style="" transform="matrix(1, 0, 0, 0.9999999999999998, 1.4210854715202004e-14, 0)"/>
  <path fill="#383458" opacity="1.000000" stroke="none" d="M 280.581 791.887 C 280.5 791.943 280.43 792.01 280.496 792.002 C 280.626 791.924 280.593 791.903 280.581 791.887 Z" style="" transform="matrix(1, 0, 0, 0.9999999999999998, 1.4210854715202004e-14, 0)"/>
  <path fill="#383458" opacity="1.000000" stroke="none" d="M 300.021 773.662 C 299.948 773.974 299.774 774.217 299.313 774.493 C 298.992 774.469 298.877 774.354 298.613 774.028 C 298.607 773.57 298.783 773.342 299.341 773.235 C 299.795 773.438 299.908 773.553 300.021 773.662 Z" style="" transform="matrix(1, 0, 0, 0.9999999999999998, 1.4210854715202004e-14, 0)"/>
  <path fill="#383458" opacity="1.000000" stroke="none" d="M 300.935 772.74 C 300.863 773.051 300.695 773.297 300.226 773.571 C 299.908 773.553 299.795 773.438 299.53 773.127 C 299.525 772.68 299.709 772.463 300.263 772.343 C 300.711 772.523 300.823 772.631 300.935 772.74 Z" style="" transform="matrix(1, 0, 0, 0.9999999999999998, 1.4210854715202004e-14, 0)"/>
  <path fill="#383458" opacity="1.000000" stroke="none" d="M 304.588 769.045 C 304.428 769.301 304.262 769.552 303.742 769.74 C 303.387 769.678 303.098 769.384 303.098 769.384 C 303.218 769.105 303.395 768.879 303.98 768.748 C 304.314 768.782 304.588 769.045 304.588 769.045 Z" style="" transform="matrix(1, 0, 0, 0.9999999999999998, 1.4210854715202004e-14, 0)"/>
  <path fill="#44406F" opacity="1.000000" stroke="none" d="M 539.55 743.518 C 539.729 743.499 539.789 743.592 539.844 743.688 C 539.708 743.67 539.568 743.647 539.55 743.518 Z" style="" transform="matrix(1, 0, 0, 0.9999999999999998, 1.4210854715202004e-14, 0)"/>
  <path fill="#383458" opacity="1.000000" stroke="none" d="M 300.451 772.238 C 300.445 771.807 300.63 771.58 301.184 771.44 C 301.633 771.605 301.739 771.712 301.851 771.818 C 301.78 772.129 301.612 772.38 301.143 772.648 C 300.823 772.631 300.711 772.523 300.451 772.238 Z" style="" transform="matrix(1, 0, 0, 0.9999999999999998, 1.4210854715202004e-14, 0)"/>
  <path fill="#383458" opacity="1.000000" stroke="none" d="M 305.993 766.741 C 306.287 766.596 306.582 766.45 306.874 766.302 C 306.867 766.532 306.86 766.758 306.522 766.977 C 306.193 766.97 305.993 766.741 305.993 766.741 Z" style="" transform="matrix(1, 0, 0, 0.9999999999999998, 1.4210854715202004e-14, 0)"/>
  <path fill="#383458" opacity="1.000000" stroke="none" d="M 305.025 767.618 C 305.129 767.32 305.313 767.091 305.789 766.836 C 305.993 766.741 306.193 766.97 306.297 767.082 C 306.241 767.448 306.083 767.705 305.59 767.917 C 305.256 767.872 305.025 767.618 305.025 767.618 Z" style="" transform="matrix(1, 0, 0, 0.9999999999999998, 1.4210854715202004e-14, 0)"/>
  <path fill="#383458" opacity="1.000000" stroke="none" d="M 301.372 771.325 C 301.372 770.902 301.56 770.688 302.119 770.548 C 302.455 770.593 302.765 770.894 302.765 770.894 C 302.696 771.207 302.531 771.457 302.061 771.732 C 301.739 771.712 301.633 771.605 301.372 771.325 Z" style="" transform="matrix(1, 0, 0, 0.9999999999999998, 1.4210854715202004e-14, 0)"/>
  <path fill="#383458" opacity="1.000000" stroke="none" d="M 304.176 768.65 C 304.183 768.243 304.381 768.018 304.828 767.731 C 305.025 767.618 305.256 767.872 305.376 767.998 C 305.441 768.445 305.281 768.698 304.8 768.965 C 304.588 769.045 304.314 768.782 304.176 768.65 Z" style="" transform="matrix(1, 0, 0, 0.9999999999999998, 1.4210854715202004e-14, 0)"/>
  <path fill="#383458" opacity="1.000000" stroke="none" d="M 302.307 770.438 C 302.317 770.027 302.508 769.812 302.921 769.508 C 303.098 769.384 303.387 769.678 303.531 769.829 C 303.609 770.29 303.444 770.537 302.97 770.805 C 302.765 770.894 302.455 770.593 302.307 770.438 Z" style="" transform="matrix(1, 0, 0, 0.9999999999999998, 1.4210854715202004e-14, 0)"/>
  <path fill="#312E47" opacity="1.000000" stroke="none" d="M 627.82 679.923 C 630.326 684.291 632.671 688.362 635.017 692.434 C 626.997 690.686 608.481 656.47 611.055 650.06 C 616.663 660.046 622.163 669.834 627.82 679.923 Z" style="" transform="matrix(1, 0, 0, 0.9999999999999998, 1.4210854715202004e-14, 0)"/>
  <path fill="#2D2B44" opacity="1.000000" stroke="none" d="M 669.893 672.442 C 670.324 673.124 670.487 673.952 670.836 675.706 C 671.52 674.248 671.835 673.582 672.213 672.597 C 673.313 672.763 674.575 673.027 675.342 673.79 C 677.287 675.708 679.003 677.855 680.55 680.738 C 677.563 679.617 674.579 678.502 670.991 677.157 C 665.836 684.356 660.58 691.702 655.318 699.047 C 653.194 692.368 659.509 690.295 661.344 685.741 C 663.242 681.005 666.796 676.942 669.893 672.442 Z" style="" transform="matrix(1, 0, 0, 0.9999999999999998, 1.4210854715202004e-14, 0)"/>
  <path fill="#2D2B44" opacity="1.000000" stroke="none" d="M 689.584 686.039 C 695.128 685.457 698.189 690.059 702.377 692.304 C 702.829 692.547 702.902 693.901 702.748 694.663 C 702.698 694.925 701.161 695.313 700.759 695.016 C 697.054 692.315 693.445 689.473 689.684 686.369 C 689.559 686.062 689.584 686.039 689.584 686.039 Z" style="" transform="matrix(1, 0, 0, 0.9999999999999998, 1.4210854715202004e-14, 0)"/>
  <path fill="#2D2B44" opacity="1.000000" stroke="none" d="M 689.548 686.077 C 688.04 685.257 686.546 684.425 685.053 683.593 C 685.35 683.166 685.645 682.738 685.949 682.311 C 687.135 683.339 688.324 684.373 689.552 685.719 C 689.584 686.039 689.559 686.062 689.548 686.077 Z" style="" transform="matrix(1, 0, 0, 0.9999999999999998, 1.4210854715202004e-14, 0)"/>
  <path fill="#2D2B44" opacity="1.000000" stroke="none" d="M 683.178 680.885 C 683.456 681.225 683.488 681.557 683.525 681.894 C 683.287 681.892 683.052 681.889 682.812 681.887 C 682.854 681.551 682.901 681.217 683.178 680.885 Z" style="" transform="matrix(1, 0, 0, 0.9999999999999998, 1.4210854715202004e-14, 0)"/>
  <path fill="#2A2740" opacity="1.000000" stroke="none" d="M 616.553 853.316 C 616.709 853.436 616.731 853.648 616.755 853.856 C 616.649 853.707 616.533 853.558 616.553 853.316 Z" style="" transform="matrix(1, 0, 0, 0.9999999999999998, 1.4210854715202004e-14, 0)"/>
</svg>